<svg width="261" height="46" viewBox="0 0 261 46" fill="none" xmlns="http://www.w3.org/2000/svg">
<path d="M4.17701 45.4171C3.61216 45.4582 3.04474 45.385 2.50955 45.2022C1.97435 45.0193 1.48266 44.7305 1.06458 44.3536C0.693049 43.9396 0.408453 43.4571 0.227323 42.9338C0.0461926 42.4106 -0.0278813 41.8572 0.00936787 41.3055V12.7344C-0.0278813 12.1827 0.0461926 11.6292 0.227323 11.106C0.408453 10.5828 0.693049 10.1002 1.06458 9.6863C1.47116 9.31515 1.95004 9.02947 2.47206 8.84665C2.99408 8.66382 3.54833 8.58769 4.10112 8.62285C6.8087 8.62285 8.16247 9.99336 8.16247 12.7344V38.5944H20.8324C23.1858 38.5944 24.37 39.7178 24.37 41.972C24.37 44.2262 23.1858 45.4096 20.8324 45.4096L4.17701 45.4171Z" fill="#F2EADF"/>
<path d="M41.61 45.9939C38.8869 46.0655 36.1849 45.5037 33.7227 44.3538C31.6075 43.3363 29.8454 41.7231 28.6592 39.7181C27.4433 37.5669 26.835 35.133 26.898 32.6707C26.8453 30.247 27.434 27.8516 28.606 25.7208C29.7102 23.7669 31.3352 22.1482 33.3051 21.0401C35.4064 19.8809 37.7835 19.2965 40.1905 19.3476C43.9456 19.3476 46.9341 20.5184 49.1559 22.86C51.3776 25.2016 52.4834 28.367 52.4733 32.3562C52.4733 33.6743 51.6534 34.3334 49.9985 34.3334H34.4893C34.5479 35.1761 34.7761 35.999 35.1606 36.7538C35.5451 37.5086 36.0782 38.1802 36.7288 38.7295C38.2078 39.7272 39.9808 40.2118 41.7694 40.1075C42.7352 40.098 43.6981 40.0028 44.6466 39.8229C45.7181 39.6348 46.7564 39.2943 47.7287 38.8119C48.1136 38.5825 48.544 38.4376 48.9907 38.3872C49.4375 38.3368 49.8899 38.382 50.3173 38.5198C50.6514 38.6561 50.953 38.8597 51.2026 39.1177C51.4523 39.3756 51.6446 39.6821 51.7673 40.0176C52.0255 40.7166 52.0255 41.483 51.7673 42.182C51.4368 42.9957 50.8042 43.6546 49.9985 44.0243C48.7134 44.7122 47.3357 45.2165 45.9068 45.5222C44.4959 45.8314 43.0553 45.9895 41.61 45.9939ZM40.4865 24.5525C39.7387 24.5187 38.9916 24.6339 38.2899 24.8912C37.5882 25.1486 36.9462 25.5428 36.4024 26.0504C35.2941 27.1998 34.6142 28.6863 34.4742 30.2667H45.8612C45.6638 26.4622 43.8723 24.5575 40.4865 24.5525Z" fill="#F2EADF"/>
<path d="M72.484 45.9939C65.2014 45.9939 61.5601 42.4989 61.5601 35.5091V25.7507H59.3434C57.2684 25.7507 56.2309 24.7771 56.2309 22.8299C56.2309 20.8827 57.2684 19.8842 59.3434 19.8343H61.5601V15.88C61.5601 13.2139 62.8962 11.8733 65.5683 11.8733C68.2405 11.8733 69.5234 13.2139 69.5234 15.88V19.8343H74.5413C76.5757 19.8343 77.5778 20.8228 77.5778 22.8299C77.5778 24.837 76.553 25.7507 74.5413 25.7507H69.5234V35.202C69.433 36.3851 69.8021 37.5578 70.5558 38.4823C70.998 38.8801 71.5193 39.1828 72.0865 39.371C72.6537 39.5593 73.2544 39.629 73.8504 39.5757C74.361 39.5818 74.8705 39.529 75.3687 39.4184C75.7836 39.3213 76.2046 39.2512 76.6289 39.2087C76.8549 39.1851 77.0833 39.2157 77.2948 39.2978C77.5062 39.38 77.6944 39.5112 77.8435 39.6805C78.2405 40.3192 78.4089 41.0707 78.3217 41.815C78.3415 42.5729 78.1966 43.3262 77.8967 44.0243C77.7515 44.3298 77.5466 44.6041 77.294 44.8316C77.0413 45.059 76.7456 45.2351 76.4239 45.3498C75.8155 45.5588 75.1873 45.7068 74.5489 45.7917C73.8667 45.9102 73.1765 45.9778 72.484 45.9939Z" fill="#F2EADF"/>
<path d="M101.931 45.9939C100.33 45.9879 98.7327 45.8476 97.156 45.5745C95.6085 45.324 94.1069 44.8496 92.6998 44.1666C91.9306 43.8294 91.32 43.2163 90.9918 42.4516C90.7375 41.7983 90.7375 41.0753 90.9918 40.422C91.2181 39.7724 91.6919 39.2352 92.3127 38.9242C92.6577 38.7575 93.0368 38.6709 93.421 38.6709C93.8052 38.6709 94.1843 38.7575 94.5293 38.9242C95.8104 39.4688 97.1429 39.8878 98.5073 40.1749C99.6607 40.4144 100.836 40.5374 102.014 40.5418C103.151 40.6235 104.287 40.379 105.286 39.8379C105.61 39.6471 105.878 39.376 106.064 39.0515C106.249 38.727 106.344 38.3604 106.342 37.988C106.342 36.7748 105.446 36.0259 103.654 35.7413L98.1125 34.7527C96.2157 34.52 94.4427 33.6992 93.049 32.4086C92.4612 31.7904 92.0045 31.0625 91.706 30.2677C91.4074 29.4728 91.273 28.6272 91.3106 27.7803C91.268 26.1607 91.7876 24.5753 92.7833 23.2868C93.852 21.9784 95.2535 20.973 96.8447 20.3735C98.7434 19.6469 100.768 19.2932 102.804 19.3325C105.649 19.2796 108.468 19.8849 111.033 21.1C111.393 21.2392 111.717 21.457 111.98 21.7372C112.243 22.0173 112.438 22.3525 112.551 22.7177C112.749 23.3883 112.704 24.1062 112.422 24.7472C112.162 25.3936 111.674 25.9255 111.048 26.245C110.689 26.4093 110.295 26.4875 109.899 26.4732C109.504 26.4589 109.117 26.3525 108.771 26.1627C107.753 25.6948 106.693 25.3212 105.605 25.0468C104.723 24.8302 103.819 24.7171 102.91 24.7098C101.719 24.614 100.525 24.875 99.4865 25.4587C99.1622 25.6621 98.8954 25.9433 98.7108 26.2759C98.5263 26.6085 98.4302 26.9818 98.4313 27.3609C98.4313 28.5742 99.2562 29.3381 100.906 29.6526L106.448 30.6412C108.376 30.8619 110.194 31.6441 111.671 32.8879C112.278 33.4901 112.751 34.2109 113.06 35.004C113.368 35.7972 113.505 36.6453 113.462 37.4937C113.511 38.7137 113.246 39.926 112.693 41.018C112.139 42.11 111.315 43.0463 110.297 43.7397C108.166 45.2425 105.377 45.9939 101.931 45.9939Z" fill="#F2EADF"/>
<path d="M142.97 45.4171C140.115 45.4171 138.696 44.0092 138.696 41.2007V12.9442C138.696 10.1357 140.115 8.72778 142.97 8.72778H155.002C158.97 8.72778 162.037 9.57903 164.203 11.2816C165.264 12.1077 166.111 13.1706 166.674 14.3827C167.238 15.5949 167.502 16.9216 167.444 18.254C167.493 20.0392 166.979 21.7953 165.972 23.2792C164.949 24.7092 163.516 25.8047 161.857 26.4247C163.809 26.8694 165.541 27.9789 166.746 29.5583C167.951 31.1376 168.553 33.0856 168.446 35.0596C168.446 38.3249 167.295 40.8662 164.992 42.6836C162.69 44.5009 159.552 45.4121 155.579 45.4171H142.97ZM146.5 23.8259H153.598C157.606 23.8259 159.61 22.2981 159.61 19.2425C159.61 16.187 157.606 14.6891 153.598 14.749H146.523L146.5 23.8259ZM146.5 39.4333H154.471C156.581 39.4333 158.13 39.0339 159.117 38.235C160.059 37.2601 160.584 35.9647 160.584 34.6177C160.584 33.2708 160.059 31.9755 159.117 31.0005C158.13 30.2067 156.581 29.8097 154.471 29.8097H146.5V39.4333Z" fill="#F2EADF"/>
<path d="M181.61 45.889C181.055 45.9233 180.498 45.8439 179.975 45.6557C179.453 45.4675 178.975 45.1747 178.573 44.7956C177.827 43.9484 177.448 42.8455 177.518 41.7251V12.5698C177.518 9.79879 178.884 8.40576 181.633 8.40576C184.381 8.40576 185.694 9.79879 185.694 12.5698V41.7251C185.671 44.496 184.312 45.889 181.61 45.889Z" fill="#F2EADF"/>
<path d="M200.117 45.8892C199.562 45.9235 199.006 45.844 198.483 45.6559C197.961 45.4677 197.483 45.1748 197.081 44.7957C196.334 43.9485 195.955 42.8457 196.026 41.7252V12.3752C195.988 11.8235 196.062 11.27 196.244 10.7468C196.425 10.2236 196.709 9.74106 197.081 9.32712C197.487 8.9556 197.966 8.66967 198.488 8.48683C199.01 8.30398 199.565 8.22807 200.117 8.26367C202.82 8.26367 204.179 9.63418 204.179 12.3752V24.7173H204.285L218.314 10.2483C218.853 9.67062 219.487 9.18701 220.189 8.81786C220.896 8.47171 221.678 8.30196 222.466 8.32355C222.948 8.28375 223.432 8.34677 223.887 8.50831C224.341 8.66985 224.755 8.92613 225.101 9.25969C225.377 9.55467 225.588 9.90389 225.719 10.2846C225.85 10.6652 225.898 11.0688 225.86 11.469C225.769 12.3535 225.356 13.1757 224.698 13.7832L212.301 26.2751L225.435 40.0626C226.171 40.7641 226.612 41.7132 226.672 42.7212C226.689 43.1365 226.618 43.5508 226.464 43.9376C226.309 44.3244 226.075 44.6753 225.776 44.968C225.408 45.2921 224.978 45.54 224.511 45.697C224.044 45.8539 223.55 45.9167 223.058 45.8817C222.195 45.9232 221.34 45.7037 220.606 45.2526C219.862 44.7254 219.182 44.1147 218.58 43.4327L204.338 28.6566H204.232V41.7177C204.303 42.8344 203.933 43.9348 203.199 44.7882C202.796 45.1796 202.312 45.4806 201.78 45.6706C201.248 45.8606 200.681 45.9352 200.117 45.8892Z" fill="#F2EADF"/>
<path d="M239.38 45.4171C236.526 45.4171 235.106 44.0092 235.106 41.2007V12.9442C235.106 10.1357 236.526 8.72778 239.38 8.72778H257.781C259.927 8.72778 261 9.76876 261 11.8507C261 13.9327 259.927 14.9912 257.781 15.0261H242.91V23.6162H256.574C258.75 23.6162 259.839 24.6747 259.839 26.7916C259.839 28.9086 258.75 29.9645 256.574 29.9595H242.91V39.1187H257.781C259.927 39.1187 261 40.1598 261 42.2417C261 44.3237 259.927 45.3822 257.781 45.4171H239.38Z" fill="#F2EADF"/>
<path d="M86.6874 0.00310535C85.0386 -0.0482413 83.4348 0.538859 82.2191 1.63889C81.0033 2.73892 80.272 4.26456 80.1817 5.88957C79.9539 9.8064 82.9601 13.7307 84.9263 15.8651C85.1299 16.0893 85.3791 16.2687 85.6577 16.3914C85.9363 16.5142 86.2381 16.5777 86.5432 16.5777C86.8484 16.5777 87.1501 16.5142 87.4287 16.3914C87.7073 16.2687 87.9566 16.0893 88.1602 15.8651C90.0581 13.7382 92.9807 9.87381 92.9807 6.32395C92.9829 4.66626 92.3242 3.0742 91.1467 1.89158C89.9693 0.708946 88.3675 0.0306338 86.6874 0.00310535ZM86.5432 9.79144C86.0024 9.79143 85.4737 9.63311 85.0241 9.33653C84.5745 9.03994 84.2243 8.61843 84.0177 8.12535C83.811 7.63226 83.7573 7.08978 83.8634 6.56658C83.9694 6.04339 84.2305 5.56303 84.6134 5.18627C84.9964 4.80952 85.4841 4.55334 86.0148 4.45016C86.5454 4.34697 87.095 4.40141 87.5943 4.60662C88.0935 4.81183 88.5199 5.15857 88.8193 5.60292C89.1186 6.04728 89.2776 6.56926 89.2761 7.10281C89.2622 7.80805 88.9679 8.47963 88.4567 8.97277C87.9454 9.4659 87.2582 9.74111 86.5432 9.73901V9.79144Z" fill="#FFCE65"/>
</svg>
