<svg width="14" height="39" viewBox="0 0 14 39" fill="none" xmlns="http://www.w3.org/2000/svg">
<g clip-path="url(#clip0_40_5558)">
<circle cx="7" cy="33" r="5" fill="#2CA600" stroke="white" stroke-width="2"/>
<path d="M14 6.83766C14.0009 5.61246 13.6645 4.40953 13.026 3.35481C12.3875 2.30008 11.4704 1.43234 10.3707 0.842374C9.27092 0.252412 8.02899 -0.0380684 6.77486 0.00134003C5.52073 0.0407484 4.30051 0.408589 3.2419 1.06637C2.18328 1.72416 1.32522 2.64769 0.757492 3.74032C0.189768 4.83295 -0.0667607 6.05451 0.0148064 7.27712C0.0963735 8.49974 0.513029 9.67846 1.22113 10.6899C1.92923 11.7014 2.90274 12.5084 4.0398 13.0266C4.45276 13.2101 4.80336 13.5052 5.05019 13.877C5.29701 14.2487 5.42977 14.6816 5.43284 15.1247V31.4044C5.42629 31.7932 5.567 32.1706 5.82795 32.4643C6.08889 32.758 6.4517 32.9473 6.84679 32.9959C7.0644 33.0162 7.28397 32.992 7.49144 32.9247C7.69892 32.8575 7.88973 32.7487 8.05167 32.6053C8.2136 32.4619 8.34308 32.287 8.43185 32.092C8.52062 31.8969 8.56671 31.6859 8.56717 31.4724V15.1247C8.57024 14.6816 8.70303 14.2487 8.94986 13.877C9.19669 13.5052 9.54724 13.2101 9.9602 13.0266C11.1671 12.4775 12.1884 11.6035 12.9041 10.5071C13.6197 9.41079 13.9999 8.13775 14 6.83766Z" fill="#92FF6B"/>
</g>
<defs>
<clipPath id="clip0_40_5558">
<rect width="14" height="39" fill="white"/>
</clipPath>
</defs>
</svg>
