<svg width="16" height="45" viewBox="0 0 16 45" fill="none" xmlns="http://www.w3.org/2000/svg">
<circle cx="8" cy="39" r="5" fill="#2CA600" stroke="white" stroke-width="2"/>
<path d="M16 8.08224C16.001 6.63449 15.6166 5.21307 14.8869 3.96677C14.1572 2.72046 13.109 1.6951 11.8522 0.997978C10.5953 0.300856 9.17599 -0.0423867 7.7427 0.0041798C6.3094 0.0507463 4.91487 0.485401 3.70502 1.26266C2.49518 2.03992 1.51453 3.13121 0.865705 4.4223C0.216878 5.71339 -0.076298 7.15683 0.0169216 8.60152C0.110141 10.0462 0.586319 11.439 1.39558 12.6342C2.20483 13.8294 3.31742 14.783 4.61692 15.3953C5.08888 15.6122 5.48956 15.9609 5.77165 16.4001C6.05373 16.8394 6.20545 17.351 6.20896 17.8745V37.1112C6.20148 37.5706 6.36229 38.0166 6.66051 38.3637C6.95873 38.7107 7.37338 38.9344 7.8249 38.9917C8.07361 39.0158 8.32454 38.9872 8.56165 38.9077C8.79876 38.8282 9.01684 38.6996 9.20191 38.5302C9.38698 38.3608 9.53495 38.1542 9.6364 37.9237C9.73785 37.6932 9.79053 37.4438 9.79105 37.1916V17.8745C9.79456 17.351 9.94633 16.8394 10.2284 16.4001C10.5105 15.9609 10.9111 15.6122 11.3831 15.3953C12.7624 14.7465 13.9297 13.7137 14.7475 12.4182C15.5654 11.1227 15.9999 9.61847 16 8.08224Z" fill="#DDFFD1"/>
<circle cx="7.99999" cy="8.00002" r="4" transform="rotate(76.4076 7.99999 8.00002)" fill="url(#paint0_linear_40_5692)"/>
<defs>
<linearGradient id="paint0_linear_40_5692" x1="3.86891" y1="9.18402" x2="12.1956" y2="6.60431" gradientUnits="userSpaceOnUse">
<stop stop-color="#9CF294"/>
<stop offset="1" stop-color="#4EC484"/>
</linearGradient>
</defs>
</svg>
