<svg width="37" height="44" viewBox="0 0 37 44" fill="none" xmlns="http://www.w3.org/2000/svg">
<g clip-path="url(#clip0_31_1052)">
<path d="M36.4922 18.6922C36.4922 8.1525 28.298 -0.025382 18.2099 -6.34411e-05C8.43982 0.0252551 0.315167 7.90293 0.0189939 18.1027C-0.215019 26.2082 5.23309 32.5994 11.0651 36.965C12.5862 38.1043 14.1878 39.1134 15.1165 40.8098L16.1732 42.7412C16.3688 43.1213 16.6668 43.4404 17.0343 43.6634C17.4018 43.8863 17.8245 44.0042 18.2556 44.0042C18.6867 44.0042 19.1094 43.8863 19.4769 43.6634C19.8444 43.4404 20.1424 43.1213 20.338 42.7412L21.3288 40.9328C22.2905 39.1749 23.9798 38.1622 25.5228 36.9324C31.8704 31.876 36.4922 26.5157 36.4922 18.6922Z" fill="#FF5740"/>
<circle cx="18" cy="19" r="9" fill="#FFE7E3"/>
</g>
<defs>
<clipPath id="clip0_31_1052">
<rect width="36.4878" height="44" fill="white"/>
</clipPath>
</defs>
</svg>
