<svg width="26" height="14" viewBox="0 0 26 14" fill="none" xmlns="http://www.w3.org/2000/svg">
<path d="M24.5259 13.9807C24.3174 13.983 24.1108 13.9413 23.9199 13.8583C23.7291 13.7753 23.5584 13.6529 23.4194 13.4994L14.8695 3.73929C14.6348 3.47215 14.3446 3.25792 14.0187 3.11109C13.6929 2.96427 13.3388 2.88829 12.9806 2.88829C12.6224 2.88829 12.2684 2.96427 11.9425 3.11109C11.6166 3.25792 11.3265 3.47215 11.0917 3.73929L2.5369 13.485C2.27912 13.7607 1.92279 13.9265 1.54333 13.9473C1.16388 13.9681 0.79114 13.8422 0.504075 13.5963C0.217011 13.3504 0.0381602 13.0038 0.00543516 12.63C-0.0272899 12.2562 0.0886714 11.8845 0.328748 11.5936L8.87867 1.84791C9.38796 1.26785 10.0176 0.802652 10.7249 0.483825C11.4322 0.164997 12.2006 0 12.9782 0C13.7557 0 14.5241 0.164997 15.2314 0.483825C15.9387 0.802652 16.5683 1.26785 17.0776 1.84791L25.6276 11.5936C25.8164 11.8021 25.9399 12.0602 25.983 12.3367C26.0261 12.6131 25.9869 12.896 25.8702 13.1509C25.7535 13.4057 25.5643 13.6217 25.3257 13.7724C25.0871 13.9232 24.8092 14.0022 24.5259 14V13.9807Z" fill="#F2EADF"/>
</svg>
