<svg width="27" height="26" viewBox="0 0 27 26" fill="none" xmlns="http://www.w3.org/2000/svg">
<path d="M13.5047 26C10.8342 26.0009 8.22349 25.2391 6.00271 23.811C3.78193 22.3829 2.05085 20.3526 1.0285 17.977C0.00613657 15.6013 -0.261565 12.9871 0.259188 10.4649C0.77994 7.94276 2.06579 5.62597 3.95407 3.80762C5.84236 1.98926 8.24824 0.751044 10.8674 0.249579C13.4866 -0.251886 16.2014 0.00593454 18.6684 0.990428C21.1354 1.97492 23.2438 3.64186 24.7268 5.78038C26.2099 7.91891 27.0009 10.4329 27 13.0045C26.9951 16.4497 25.5717 19.7524 23.0419 22.1885C20.5121 24.6246 17.0823 25.9953 13.5047 26ZM13.5047 1.79203C11.2015 1.79115 8.94989 2.44799 7.03448 3.67949C5.11907 4.911 3.62597 6.66183 2.74397 8.71056C1.86198 10.7593 1.63072 13.0139 2.07947 15.1892C2.52822 17.3645 3.6368 19.3627 5.26501 20.9313C6.89323 22.4998 8.96797 23.5682 11.2268 24.0012C13.4855 24.4341 15.8269 24.2124 17.9548 23.3638C20.0827 22.5153 21.9014 21.0782 23.181 19.2342C24.4607 17.3903 25.1437 15.2223 25.1437 13.0045C25.1412 10.0322 23.9144 7.18237 21.7323 5.08027C19.5502 2.97817 16.5912 1.79558 13.5047 1.79203Z" fill="#F2EADF"/>
<path d="M18.0154 17.5361C17.8183 17.5355 17.6265 17.4744 17.4678 17.3618L13.3886 14.4615C13.1372 14.2828 12.9328 14.0498 12.7917 13.7813C12.6507 13.5128 12.5769 13.2162 12.5764 12.9153V5.87229C12.5764 5.63525 12.6742 5.40791 12.8483 5.2403C13.0223 5.07268 13.2584 4.97852 13.5046 4.97852C13.7507 4.97852 13.9868 5.07268 14.1609 5.2403C14.3349 5.40791 14.4327 5.63525 14.4327 5.87229V12.9153C14.4327 12.9367 14.4377 12.9579 14.4473 12.9772C14.457 12.9966 14.471 13.0136 14.4884 13.027L18.5491 15.9228C18.7066 16.0346 18.8233 16.1914 18.8828 16.3708C18.9422 16.5503 18.9412 16.7432 18.8799 16.9221C18.8187 17.101 18.7003 17.2567 18.5417 17.367C18.3831 17.4772 18.1925 17.5364 17.9969 17.5361H18.0154Z" fill="#F2EADF"/>
</svg>
