<svg width="26" height="26" viewBox="0 0 26 26" fill="none" xmlns="http://www.w3.org/2000/svg">
<path d="M19.3422 25.9999C18.5982 26.0034 17.862 25.8484 17.1826 25.5453C9.78011 22.2371 3.84452 16.3337 0.49607 8.94913C-0.0153909 7.83955 -0.135558 6.58934 0.155121 5.40264C0.4458 4.21593 1.13016 3.16283 2.09652 2.41526L4.36988 0.646516C4.96739 0.186093 5.71189 -0.0414567 6.46469 0.00622258C7.21749 0.0539019 7.92728 0.373564 8.46193 0.905692L11.4264 3.87026C11.9291 4.36815 12.2462 5.02323 12.3247 5.72642C12.4033 6.42961 12.2387 7.1385 11.8583 7.73511L10.8853 9.26742C10.8363 9.34136 10.8149 9.43019 10.8249 9.51832C10.8349 9.60646 10.8756 9.68827 10.9399 9.74939L16.2505 15.0601C16.3141 15.1218 16.3964 15.1606 16.4844 15.1705C16.5724 15.1804 16.6612 15.1608 16.7369 15.1147L18.2692 14.1417C18.8646 13.761 19.5724 13.5958 20.2748 13.6736C20.9772 13.7514 21.6317 14.0674 22.1294 14.5691L25.0984 17.5382C25.6289 18.0739 25.9472 18.7839 25.994 19.5365C26.0408 20.289 25.8131 21.033 25.353 21.6304L23.598 23.9038C23.0947 24.5538 22.4497 25.0804 21.7123 25.4436C20.9748 25.8069 20.1643 25.9971 19.3422 25.9999ZM6.27499 1.80143C5.98867 1.79967 5.71001 1.89415 5.48381 2.06969L3.21045 3.83844C2.56956 4.33735 2.11617 5.03825 1.92386 5.82735C1.73154 6.61645 1.81162 7.44741 2.15108 8.18526C5.31716 15.163 10.9253 20.7422 17.9191 23.872C18.6501 24.1909 19.4668 24.2559 20.2389 24.0564C21.0111 23.857 21.6943 23.4047 22.1794 22.7717L23.9299 20.4982C24.1228 20.2507 24.2186 19.9413 24.1993 19.6282C24.1801 19.315 24.0471 19.0196 23.8253 18.7977L20.8563 15.8286C20.6508 15.6191 20.3793 15.487 20.0876 15.4547C19.796 15.4224 19.5022 15.4918 19.2558 15.6512L17.7236 16.6197C17.3024 16.887 16.8027 17.0029 16.3069 16.9483C15.8111 16.8938 15.3486 16.6721 14.9956 16.3196L9.68502 11.0043C9.3319 10.6518 9.10928 10.1896 9.05391 9.69372C8.99854 9.19784 9.1137 8.69789 9.38037 8.27619L10.3534 6.74844C10.5106 6.50059 10.5788 6.20654 10.5465 5.91477C10.5143 5.623 10.3836 5.35093 10.176 5.14339L7.20703 2.17881C7.0848 2.05676 6.93932 1.96048 6.77922 1.89566C6.61912 1.83084 6.44769 1.79879 6.27499 1.80143Z" fill="#F2EADF"/>
</svg>
