<svg width="31" height="26" viewBox="0 0 31 26" fill="none" xmlns="http://www.w3.org/2000/svg">
<g clip-path="url(#clip0_40_2801)">
<path d="M15.5 20.9955C14.2137 20.9961 12.956 20.6272 11.8861 19.9354C10.8162 19.2437 9.98217 18.2601 9.48945 17.1092C8.99673 15.9583 8.86747 14.6916 9.11803 13.4695C9.36859 12.2474 9.98772 11.1248 10.8971 10.2435C11.8065 9.36228 12.9652 8.76203 14.2268 8.51873C15.4884 8.27542 16.7962 8.39998 17.9847 8.87664C19.1732 9.35331 20.189 10.1607 20.9038 11.1966C21.6185 12.2325 22 13.4505 22 14.6965C21.9983 16.366 21.313 17.9667 20.0945 19.1476C18.876 20.3284 17.2237 20.9929 15.5 20.9955ZM15.5 10.2998C14.602 10.3023 13.7249 10.5626 12.9796 11.0477C12.2342 11.5328 11.654 12.221 11.3123 13.0254C10.9706 13.8297 10.8827 14.7141 11.0597 15.5669C11.2367 16.4196 11.6707 17.2024 12.3068 17.8163C12.943 18.4303 13.7527 18.8478 14.6337 19.0162C15.5147 19.1846 16.4275 19.0962 17.2567 18.7624C18.0859 18.4285 18.7943 17.8641 19.2925 17.1404C19.7907 16.4167 20.0562 15.5662 20.0556 14.6965C20.0547 14.118 19.9362 13.5454 19.7067 13.0113C19.4773 12.4772 19.1414 11.9921 18.7184 11.5838C18.2953 11.1755 17.7933 10.852 17.2411 10.6317C16.6889 10.4113 16.0972 10.2986 15.5 10.2998Z" fill="#F2EADF"/>
<path d="M24.7754 26.0008H6.22307C4.57533 25.9949 2.99704 25.3572 1.83344 24.2272C0.66984 23.0972 0.015633 21.5668 0.013916 19.9708V9.98739C0.0190869 8.39389 0.674926 6.86708 1.83825 5.7403C3.00157 4.61352 4.57789 3.97828 6.22307 3.97327H8.53025L9.35706 2.03609C9.60906 1.43678 10.0402 0.924044 10.5951 0.563663C11.15 0.203282 11.8033 0.0116836 12.4714 0.0134397H18.527C19.1951 0.0116836 19.8485 0.203282 20.4034 0.563663C20.9583 0.924044 21.3894 1.43678 21.6414 2.03609L22.4584 3.96693H24.7754C26.4205 3.97194 27.9969 4.60718 29.1602 5.73396C30.3235 6.86074 30.9793 8.38755 30.9845 9.98105V19.9645C30.9845 21.5616 30.3311 23.0936 29.1673 24.225C28.0035 25.3564 26.4242 25.9949 24.7754 26.0008ZM6.22307 5.85981C5.09792 5.8648 4.02033 6.29993 3.22472 7.07055C2.42912 7.84117 1.97986 8.88493 1.9747 9.97474V19.9582C1.97555 21.0507 2.42291 22.0985 3.21898 22.8726C4.01505 23.6466 5.0951 24.0839 6.22307 24.0889H24.7754C25.9033 24.0839 26.9834 23.6466 27.7794 22.8726C28.5755 22.0985 29.0229 21.0507 29.0237 19.9582V9.97474C29.0186 8.88493 28.5693 7.84117 27.7737 7.07055C26.9781 6.29993 25.9005 5.8648 24.7754 5.85981H22.4682C22.0766 5.86094 21.6936 5.74848 21.3686 5.53692C21.0436 5.32537 20.7915 5.02441 20.6446 4.67281L19.8276 2.74195C19.7217 2.49105 19.5405 2.27668 19.3075 2.12658C19.0745 1.97648 18.8003 1.89755 18.5205 1.89998H12.4714C12.1912 1.89781 11.9168 1.9772 11.6837 2.1279C11.4506 2.27859 11.2696 2.49362 11.1642 2.74512L10.3472 4.67281C10.2004 5.02441 9.94824 5.32537 9.62324 5.53692C9.29824 5.74848 8.91531 5.86094 8.52373 5.85981H6.22307Z" fill="#F2EADF"/>
</g>
<defs>
<clipPath id="clip0_40_2801">
<rect width="31" height="26" fill="white"/>
</clipPath>
</defs>
</svg>
