<svg width="48" height="35" viewBox="0 0 48 35" fill="none" xmlns="http://www.w3.org/2000/svg">
<path d="M8.91643 34.3391C13.8408 34.3391 17.8329 30.287 17.8329 25.2885C17.8329 20.2899 13.8408 16.2378 8.91643 16.2378C3.99202 16.2378 0 20.2899 0 25.2885C0 30.287 3.99202 34.3391 8.91643 34.3391Z" fill="#F2EADF"/>
<path d="M38.5206 15.7124C37.03 15.7119 35.5602 16.0677 34.2302 16.7509L32.5237 14.1896L32.4955 14.1486C32.3282 13.9215 32.1429 13.7087 31.9415 13.5124V4.86807C31.9404 3.57803 31.4353 2.34106 30.537 1.42847C29.6387 0.515885 28.4205 0.00217317 27.1496 0H23.1342C22.8125 0 22.5039 0.12974 22.2764 0.360669C22.0489 0.591598 21.9211 0.9048 21.9211 1.23138C21.9211 1.55797 22.0489 1.87118 22.2764 2.10211C22.5039 2.33304 22.8125 2.46277 23.1342 2.46277H27.1375C27.7653 2.46385 28.3669 2.71775 28.8105 3.16871C29.254 3.61967 29.5031 4.23086 29.5031 4.86807V12.0922C29.0409 11.9611 28.5636 11.8934 28.0837 11.8911H16.1507C16.1507 11.8336 16.1507 11.772 16.1507 11.7104V8.87827H17.7682C18.0899 8.87827 18.3985 8.74853 18.626 8.5176C18.8535 8.28667 18.9813 7.97347 18.9813 7.64689C18.9813 7.32031 18.8535 7.0071 18.626 6.77618C18.3985 6.54525 18.0899 6.41551 17.7682 6.41551H12.0867C11.765 6.41551 11.4564 6.54525 11.2289 6.77618C11.0014 7.0071 10.8736 7.32031 10.8736 7.64689C10.8736 7.97347 11.0014 8.28667 11.2289 8.5176C11.4564 8.74853 11.765 8.87827 12.0867 8.87827H13.7042V11.7146C13.7026 12.3866 13.866 13.0484 14.1794 13.6403C14.4929 14.2322 14.9466 14.7356 15.4996 15.105C17.1658 16.2135 18.5339 17.7256 19.4806 19.5048C20.4273 21.2841 20.9227 23.2745 20.9223 25.2967C20.9223 25.6233 21.0501 25.9365 21.2776 26.1674C21.5051 26.3984 21.8137 26.5281 22.1354 26.5281C22.4571 26.5281 22.7657 26.3984 22.9932 26.1674C23.2207 25.9365 23.3485 25.6233 23.3485 25.2967C23.3481 23.2287 22.9153 21.1844 22.0788 19.2987C21.2423 17.4131 20.0212 15.729 18.496 14.3579H28.0797C28.5503 14.3592 29.0142 14.471 29.4352 14.6847C29.8561 14.8983 30.2226 15.2079 30.5059 15.5893L32.2002 18.1301C30.535 19.6256 29.4392 21.6665 29.1034 23.8976C28.7676 26.1286 29.2132 28.4086 30.3626 30.3405C31.5121 32.2725 33.2925 33.7342 35.3941 34.4712C37.4956 35.2082 39.7853 35.1739 41.8645 34.3741C43.9436 33.5744 45.6807 32.0599 46.7734 30.0943C47.866 28.1287 48.245 25.8364 47.8445 23.6163C47.4439 21.3963 46.2891 19.3892 44.581 17.9443C42.8729 16.4994 40.7198 15.7081 38.4963 15.7083L38.5206 15.7124ZM38.5206 32.5413C37.111 32.5421 35.7334 32.1153 34.5645 31.3157C33.3956 30.5161 32.4887 29.3802 31.9602 28.0538C31.4318 26.7273 31.3059 25.2708 31.5987 23.8713C31.8915 22.4717 32.5896 21.1928 33.6034 20.1988L37.2873 25.7359C37.3985 25.903 37.5486 26.0398 37.7241 26.1343C37.8997 26.2288 38.0954 26.278 38.2942 26.2777C38.5359 26.2768 38.7721 26.204 38.9735 26.0684C39.1056 25.9776 39.2187 25.8614 39.3064 25.7262C39.3942 25.591 39.4548 25.4396 39.4849 25.2806C39.5149 25.1217 39.5138 24.9582 39.4816 24.7997C39.4493 24.6412 39.3866 24.4907 39.297 24.3567L35.601 18.8196C36.5148 18.3956 37.5078 18.1758 38.5125 18.1752C40.3479 18.2382 42.0874 19.0226 43.3639 20.3628C44.6403 21.703 45.3538 23.4942 45.3538 25.3583C45.3538 27.2224 44.6403 29.0136 43.3639 30.3538C42.0874 31.694 40.3479 32.4784 38.5125 32.5413H38.5206Z" fill="#F2EADF"/>
</svg>
