<svg width="43" height="39" viewBox="0 0 43 39" fill="none" xmlns="http://www.w3.org/2000/svg">
<path d="M36.2696 21.7383C35.3855 21.7378 34.5098 21.9114 33.6928 22.2493C32.8758 22.5872 32.1333 23.0827 31.5079 23.7076C30.8825 24.3325 30.3864 25.0744 30.0479 25.891C29.7095 26.7076 29.5352 27.5829 29.5352 28.4669C29.5352 34.1211 33.9427 38.9999 36.2696 38.9999C38.9036 38.9999 43 33.382 43 28.4669C43 26.6823 42.2909 24.9709 41.0287 23.709C39.7665 22.4472 38.0546 21.7383 36.2696 21.7383ZM36.2696 31.3707C35.7103 31.3707 35.1636 31.2049 34.6985 30.8943C34.2335 30.5836 33.871 30.1421 33.657 29.6255C33.443 29.1089 33.387 28.5405 33.4961 27.992C33.6052 27.4436 33.8745 26.9399 34.27 26.5445C34.6655 26.1491 35.1694 25.8799 35.7179 25.7708C36.2665 25.6617 36.8351 25.7177 37.3518 25.9317C37.8685 26.1456 38.3102 26.508 38.6209 26.9729C38.9317 27.4378 39.0975 27.9844 39.0975 28.5436C39.0975 29.2934 38.7996 30.0125 38.2692 30.5427C37.7389 31.0729 37.0196 31.3707 36.2696 31.3707Z" fill="#F2EADF"/>
<path d="M8.63025 7.3531C10.5088 7.04824 11.7845 5.27864 11.4796 3.40057C11.1746 1.52251 9.40456 0.247163 7.52598 0.552016C5.64741 0.85687 4.37171 2.62648 4.67665 4.50454C4.98158 6.38261 6.75168 7.65795 8.63025 7.3531Z" fill="#F2EADF"/>
<path d="M26.7882 35.3892H10.1965C8.13511 35.3892 6.15811 34.5705 4.70045 33.1132C3.2428 31.656 2.4239 29.6795 2.4239 27.6186C2.4239 25.5577 3.2428 23.5812 4.70045 22.124C6.15811 20.6667 8.13511 19.848 10.1965 19.848H25.6328C26.7707 19.8728 27.9021 19.6701 28.9607 19.2518C30.0192 18.8335 30.9835 18.2082 31.7971 17.4123C32.6106 16.6165 33.257 15.6662 33.6983 14.6173C34.1396 13.5684 34.3669 12.442 34.3669 11.3041C34.3669 10.1661 34.1396 9.0397 33.6983 7.99079C33.257 6.94187 32.6106 5.99162 31.7971 5.19579C30.9835 4.39996 30.0192 3.77457 28.9607 3.35631C27.9021 2.93805 26.7707 2.73534 25.6328 2.76008H16.1755C15.8541 2.76008 15.5458 2.88772 15.3185 3.11495C15.0912 3.34217 14.9636 3.65036 14.9636 3.9717C14.9636 4.29305 15.0912 4.60122 15.3185 4.82845C15.5458 5.05567 15.8541 5.18333 16.1755 5.18333H25.6328C26.45 5.16234 27.2632 5.30513 28.0243 5.60329C28.7855 5.90145 29.4792 6.34895 30.0647 6.91938C30.6501 7.48982 31.1154 8.17166 31.4331 8.92471C31.7508 9.67776 31.9144 10.4868 31.9144 11.3041C31.9144 12.1213 31.7508 12.9304 31.4331 13.6834C31.1154 14.4365 30.6501 15.1183 30.0647 15.6887C29.4792 16.2592 28.7855 16.7067 28.0243 17.0048C27.2632 17.303 26.45 17.4458 25.6328 17.4248H10.1965C7.49225 17.4248 4.89873 18.4988 2.98651 20.4105C1.07428 22.3222 0 24.915 0 27.6186C0 30.3222 1.07428 32.915 2.98651 34.8267C4.89873 36.7384 7.49225 37.8124 10.1965 37.8124H26.7882C27.1096 37.8124 27.4179 37.6848 27.6451 37.4575C27.8724 37.2303 28.0001 36.9221 28.0001 36.6008C28.0001 36.2795 27.8724 35.9713 27.6451 35.744C27.4179 35.5168 27.1096 35.3892 26.7882 35.3892Z" fill="#F2EADF"/>
</svg>
