<svg width="24" height="24" viewBox="0 0 24 24" fill="none" xmlns="http://www.w3.org/2000/svg">
<g clip-path="url(#clip0_31_534)">
<path d="M23.5746 21.5298L18.6054 16.5606C20.1798 14.4676 20.9021 11.8555 20.6266 9.25098C20.3511 6.64647 19.0984 4.24325 17.1211 2.52586C15.1437 0.808474 12.5887 -0.0953489 9.97127 -0.00337659C7.35384 0.0885958 4.86867 1.16952 3.01673 3.02146C1.16478 4.8734 0.0838348 7.35863 -0.00813751 9.97606C-0.10011 12.5935 0.803742 15.1484 2.52113 17.1258C4.23852 19.1032 6.64174 20.3559 9.24625 20.6313C11.8508 20.9068 14.4629 20.1845 16.5559 18.6102L21.525 23.5987C21.7969 23.8703 22.1655 24.0228 22.5498 24.0228C22.9341 24.0228 23.3027 23.8703 23.5746 23.5987C23.712 23.4637 23.8211 23.3027 23.8956 23.1251C23.9701 22.9475 24.0085 22.7568 24.0085 22.5642C24.0085 22.3716 23.9701 22.181 23.8956 22.0034C23.8211 21.8258 23.712 21.6648 23.5746 21.5298ZM5.07553 15.6132C4.03426 14.5712 3.32524 13.244 3.03821 11.7991C2.75117 10.3543 2.899 8.85684 3.46294 7.496C4.02687 6.13516 4.98159 4.97206 6.20646 4.15377C7.43133 3.33548 8.87131 2.89872 10.3444 2.89872C11.8174 2.89872 13.2574 3.33548 14.4823 4.15377C15.7071 4.97206 16.6619 6.13516 17.2259 7.496C17.7898 8.85684 17.9376 10.3543 17.6505 11.7991C17.3635 13.244 16.6545 14.5712 15.6133 15.6132C14.2156 17.01 12.3204 17.7946 10.3444 17.7946C8.36835 17.7946 6.47325 17.01 5.07553 15.6132Z" fill="#F2EADF"/>
</g>
<defs>
<clipPath id="clip0_31_534">
<rect width="24" height="24" fill="white"/>
</clipPath>
</defs>
</svg>
