<svg width="27" height="27" viewBox="0 0 27 27" fill="none" xmlns="http://www.w3.org/2000/svg">
<path d="M25.8509 8.06969C25.8407 8.04139 25.8284 8.01385 25.8143 7.98724C24.7498 5.60842 23.02 3.58857 20.8337 2.17133C18.6475 0.75409 16.0981 0 13.4931 0C10.8881 0 8.33877 0.75409 6.15253 2.17133C3.96628 3.58857 2.2365 5.60842 1.17192 7.98724L1.13989 8.06053C0.237308 10.1164 -0.138782 12.365 0.0456783 14.6029C0.230139 16.8408 0.969314 18.9974 2.19634 20.8776C3.42336 22.7578 5.09952 24.3022 7.07317 25.3712C9.04683 26.4402 11.2557 27 13.5 27C15.7443 27 17.9532 26.4402 19.9268 25.3712C21.9005 24.3022 23.5766 22.7578 24.8037 20.8776C26.0307 18.9974 26.7699 16.8408 26.9543 14.6029C27.1388 12.365 26.7627 10.1164 25.8601 8.06053L25.8509 8.06969ZM13.4908 25.1862C12.1175 25.1862 10.6526 22.69 9.90184 18.87H17.0982C16.3291 22.69 14.855 25.1862 13.4954 25.1862H13.4908ZM9.61344 17.0379C9.47463 15.8659 9.4058 14.6867 9.4074 13.5065C9.40358 12.1026 9.50305 10.7003 9.70497 9.31094H17.2767C17.4764 10.7005 17.5758 12.1026 17.5743 13.5065C17.5744 14.6868 17.5041 15.866 17.3636 17.0379H9.61344ZM1.83115 13.5065C1.83085 12.0716 2.09624 10.6491 2.61394 9.31094H7.87385C7.52716 11.8732 7.49797 14.4685 7.78689 17.0379H2.37588C2.01016 15.8933 1.82334 14.699 1.82199 13.4973L1.83115 13.5065ZM13.5046 1.83134C14.7818 1.83134 16.1643 4.03903 16.9471 7.47883H10.0483C10.8311 4.03903 12.2136 1.83134 13.4954 1.83134H13.5046ZM19.1353 9.31094H24.3906C25.3454 11.7847 25.4293 14.51 24.6286 17.0379H19.2177C19.5115 14.4688 19.4838 11.8731 19.1353 9.31094ZM23.4934 7.47883H18.8194C18.4908 5.67214 17.8544 3.93538 16.9379 2.34433C19.682 3.19361 22.0193 5.02049 23.5071 7.47883H23.4934ZM10.0666 2.34433C9.15018 3.93538 8.51377 5.67214 8.18516 7.47883H3.50206C4.98776 5.02428 7.31931 3.19809 10.0575 2.34433H10.0666ZM3.1404 18.87H8.05697C8.36593 20.9098 9.04715 22.8754 10.0666 24.6686C8.58476 24.2091 7.20872 23.4599 6.01824 22.4646C4.82776 21.4692 3.84648 20.2475 3.13123 18.87H3.1404ZM16.9379 24.6686C17.9574 22.8754 18.6387 20.9098 18.9476 18.87H23.8642C23.1489 20.2475 22.1677 21.4692 20.9772 22.4646C19.7867 23.4599 18.4107 24.2091 16.9288 24.6686H16.9379Z" fill="#F2EADF"/>
</svg>
