<svg width="30" height="45" viewBox="0 0 30 45" fill="none" xmlns="http://www.w3.org/2000/svg">
<g clip-path="url(#clip0_31_1129)">
<path d="M11.6427 21.0797C11.4502 21.1077 11.254 21.0898 11.0695 21.0276C10.885 20.9655 10.7172 20.8606 10.5795 20.7214C10.4418 20.5822 10.3378 20.4124 10.2759 20.2255C10.2139 20.0386 10.1956 19.8396 10.2225 19.6442V10.0079C10.1956 9.81258 10.2139 9.6136 10.2759 9.42666C10.3378 9.23972 10.4418 9.06994 10.5795 8.93073C10.7172 8.79152 10.885 8.68668 11.0695 8.62449C11.254 8.56231 11.4502 8.54447 11.6427 8.57239H15.8732C16.9589 8.50331 18.0359 8.80826 18.9294 9.43778C19.2812 9.72054 19.562 10.0839 19.7487 10.498C19.9354 10.9121 20.0226 11.3652 20.0033 11.8201C20.0153 12.4293 19.8399 13.0271 19.5015 13.5305C19.1597 14.0161 18.6852 14.3895 18.1365 14.6046C18.7776 14.7652 19.3468 15.1399 19.7524 15.6685C20.144 16.2142 20.3437 16.8775 20.3195 17.552C20.3435 18.0456 20.2525 18.5379 20.0537 18.989C19.8549 19.4401 19.5539 19.8373 19.1753 20.1482C18.2714 20.8134 17.169 21.1424 16.0538 21.0797H11.6427ZM12.812 13.7189H15.4015C16.7314 13.7189 17.4088 13.2098 17.4088 12.1561C17.4088 11.1024 16.7414 10.629 15.4015 10.629H12.812V13.7189ZM12.812 19.0385H15.6976C16.2419 19.0854 16.7856 18.9417 17.2382 18.6312C17.4096 18.4766 17.5439 18.2844 17.6309 18.0691C17.7178 17.8538 17.7552 17.6213 17.74 17.3891C17.7551 17.16 17.7176 16.9305 17.6305 16.7185C17.5435 16.5065 17.4092 16.3179 17.2382 16.1674C16.7863 15.8552 16.2425 15.7096 15.6976 15.7551H12.812V19.0385Z" fill="#F2EADF"/>
<path d="M15.0006 39.9355C14.7344 39.9355 14.4791 39.8282 14.2909 39.6373C14.1027 39.4464 13.9969 39.1874 13.9969 38.9174V32.5441C13.9911 31.9673 13.7876 31.4106 13.4213 30.9694C13.055 30.5282 12.5488 30.2301 11.9895 30.1261C9.29676 29.5647 6.80787 28.2635 4.7947 26.3646C2.78153 24.4657 1.3215 22.0421 0.574145 19.3586C-0.173209 16.675 -0.179149 13.8348 0.556931 11.1481C1.29301 8.46132 2.74284 6.03144 4.74802 4.12384C6.24292 2.69439 8.01352 1.59457 9.94824 0.89367C11.883 0.192772 13.9398 -0.0940014 15.9892 0.0514419C19.3198 0.275308 22.4817 1.61965 24.9742 3.87165C27.4668 6.12364 29.1476 9.15464 29.7506 12.4848C30.3537 15.8149 29.8444 19.254 28.3036 22.2575C26.7627 25.261 24.2783 27.6574 21.2435 29.0673C21.1236 29.1228 20.994 29.1537 20.8622 29.1584C20.7305 29.1631 20.5992 29.1415 20.4757 29.0947C20.3522 29.0479 20.239 28.9769 20.1425 28.8857C20.0461 28.7945 19.9683 28.685 19.9136 28.5633C19.8589 28.4417 19.8284 28.3102 19.8237 28.1766C19.8191 28.043 19.8405 27.9097 19.8866 27.7845C19.9327 27.6592 20.0027 27.5444 20.0926 27.4465C20.1825 27.3487 20.2905 27.2698 20.4104 27.2143C23.0437 25.9957 25.2003 23.92 26.5384 21.3166C27.8764 18.7133 28.3192 15.7312 27.7964 12.8436C27.2736 9.95591 25.8153 7.328 23.6527 5.3767C21.4901 3.42541 18.747 2.26248 15.8587 2.07237C14.0854 1.9554 12.3074 2.20866 10.6345 2.81648C8.96154 3.4243 7.42934 4.37377 6.13255 5.60617C4.83576 6.83857 3.80196 8.3277 3.09511 9.9815C2.38826 11.6353 2.02337 13.4186 2.023 15.2211C2.0331 18.2525 3.06876 21.1885 4.95685 23.5383C6.84494 25.8881 9.47104 27.5092 12.3961 28.1306C13.4119 28.3237 14.3295 28.8701 14.9909 29.6757C15.6523 30.4813 16.016 31.4957 16.0193 32.5441V38.9174C16.0193 39.0524 15.9929 39.186 15.9415 39.3106C15.8901 39.4351 15.8149 39.548 15.7201 39.6427C15.6253 39.7375 15.5128 39.8122 15.3893 39.8624C15.2658 39.9127 15.1336 39.9375 15.0006 39.9355Z" fill="#F2EADF"/>
<path d="M25.0769 45.0052H4.92305C4.65686 45.0052 4.40158 44.8979 4.21336 44.707C4.02513 44.5161 3.91937 44.2571 3.91937 43.9871C3.91937 43.7171 4.02513 43.4581 4.21336 43.2672C4.40158 43.0762 4.65686 42.969 4.92305 42.969H25.0769C25.3431 42.969 25.5984 43.0762 25.7867 43.2672C25.9749 43.4581 26.0806 43.7171 26.0806 43.9871C26.0806 44.2571 25.9749 44.5161 25.7867 44.707C25.5984 44.8979 25.3431 45.0052 25.0769 45.0052Z" fill="#F2EADF"/>
</g>
<defs>
<clipPath id="clip0_31_1129">
<rect width="30" height="45" fill="white"/>
</clipPath>
</defs>
</svg>
