<svg width="34" height="31" viewBox="0 0 34 31" fill="none" xmlns="http://www.w3.org/2000/svg">
<g clip-path="url(#clip0_20_922)">
<path d="M32.8401 2.50241H15.9716C15.7275 1.77467 15.2602 1.14187 14.6358 0.693507C14.0114 0.24514 13.2614 0.00390625 12.4919 0.00390625C11.7225 0.00390625 10.9725 0.24514 10.3481 0.693507C9.72362 1.14187 9.25633 1.77467 9.01228 2.50241H1.15988C0.852262 2.50241 0.557235 2.62427 0.339715 2.84119C0.122195 3.05812 0 3.35234 0 3.65912C0 3.9659 0.122195 4.26012 0.339715 4.47705C0.557235 4.69398 0.852262 4.81584 1.15988 4.81584H9.01228C9.25633 5.54357 9.72362 6.17637 10.3481 6.62474C10.9725 7.0731 11.7225 7.31434 12.4919 7.31434C13.2614 7.31434 14.0114 7.0731 14.6358 6.62474C15.2602 6.17637 15.7275 5.54357 15.9716 4.81584H32.8401C33.1477 4.81584 33.4428 4.69398 33.6603 4.47705C33.8778 4.26012 34 3.9659 34 3.65912C34 3.35234 33.8778 3.05812 33.6603 2.84119C33.4428 2.62427 33.1477 2.50241 32.8401 2.50241Z" fill="#F2EADF"/>
<path d="M32.8401 26.1804H15.9716C15.7275 25.4527 15.2602 24.8199 14.6358 24.3715C14.0114 23.9231 13.2614 23.6819 12.4919 23.6819C11.7225 23.6819 10.9725 23.9231 10.3481 24.3715C9.72362 24.8199 9.25633 25.4527 9.01228 26.1804H1.15988C0.852262 26.1804 0.557235 26.3023 0.339715 26.5192C0.122195 26.7361 0 27.0303 0 27.3371C0 27.6439 0.122195 27.9381 0.339715 28.155C0.557235 28.372 0.852262 28.4938 1.15988 28.4938H9.01228C9.25439 29.2234 9.72093 29.8584 10.3456 30.3084C10.9703 30.7584 11.7213 31.0007 12.4919 31.0007C13.2625 31.0007 14.0136 30.7584 14.6382 30.3084C15.2629 29.8584 15.7295 29.2234 15.9716 28.4938H32.8401C33.1477 28.4938 33.4428 28.372 33.6603 28.155C33.8778 27.9381 34 27.6439 34 27.3371C34 27.0303 33.8778 26.7361 33.6603 26.5192C33.4428 26.3023 33.1477 26.1804 32.8401 26.1804Z" fill="#F2EADF"/>
<path d="M32.8401 14.3433H26.5845C26.3424 13.6137 25.8758 12.9787 25.2512 12.5287C24.6265 12.0787 23.8755 11.8364 23.1048 11.8364C22.3342 11.8364 21.5832 12.0787 20.9585 12.5287C20.3339 12.9787 19.8673 13.6137 19.6252 14.3433H1.15988C0.852262 14.3433 0.557235 14.4652 0.339715 14.6821C0.122195 14.899 0 15.1932 0 15.5C0 15.8068 0.122195 16.101 0.339715 16.3179C0.557235 16.5349 0.852262 16.6567 1.15988 16.6567H19.6252C19.8693 17.3845 20.3365 18.0172 20.961 18.4656C21.5854 18.914 22.3354 19.1552 23.1048 19.1552C23.8743 19.1552 24.6243 18.914 25.2487 18.4656C25.8731 18.0172 26.3404 17.3845 26.5845 16.6567H32.8401C33.1477 16.6567 33.4428 16.5349 33.6603 16.3179C33.8778 16.101 34 15.8068 34 15.5C34 15.1932 33.8778 14.899 33.6603 14.6821C33.4428 14.4652 33.1477 14.3433 32.8401 14.3433Z" fill="#F2EADF"/>
</g>
<defs>
<clipPath id="clip0_20_922">
<rect width="34" height="31" fill="white"/>
</clipPath>
</defs>
</svg>
