<svg width="37" height="38" viewBox="0 0 37 38" fill="none" xmlns="http://www.w3.org/2000/svg">
<g clip-path="url(#clip0_20_918)">
<path d="M18.3759 27.6919C14.0709 27.6919 6.95398 19.9037 6.95398 11.0309C6.95398 8.10436 8.15736 5.29767 10.2994 3.22829C12.4414 1.15891 15.3466 -0.00366211 18.3759 -0.00366211C21.4052 -0.00366211 24.3104 1.15891 26.4525 3.22829C28.5945 5.29767 29.7979 8.10436 29.7979 11.0309C29.7979 18.3539 23.3923 27.6919 18.3759 27.6919ZM18.3759 2.14384C15.9371 2.14668 13.599 3.08391 11.8745 4.74994C10.1499 6.41597 9.17981 8.67478 9.17687 11.0309C9.17687 19.1091 15.7826 25.5444 18.3759 25.5444C21.5732 25.5444 27.575 17.8564 27.575 11.0309C27.5711 8.6754 26.6005 6.41751 24.8761 4.75225C23.1517 3.08699 20.8141 2.15026 18.3759 2.14742V2.14384Z" fill="#F2EADF"/>
<path d="M32.3134 37.9998H4.6829C3.99902 37.9986 3.32374 37.8526 2.70449 37.5723C2.08524 37.2919 1.53706 36.8839 1.09849 36.377C0.65992 35.8701 0.341602 35.2765 0.165909 34.638C-0.00978379 33.9995 -0.0385927 33.3316 0.0815194 32.6811L1.24113 26.4212C1.44848 25.2925 2.06093 24.2704 2.97089 23.5347C3.88085 22.7989 5.0301 22.3966 6.21669 22.3982C6.51147 22.3982 6.79418 22.5113 7.00261 22.7127C7.21105 22.9141 7.32814 23.1872 7.32814 23.4719C7.32814 23.7567 7.21105 24.0298 7.00261 24.2312C6.79418 24.4326 6.51147 24.5457 6.21669 24.5457C5.55201 24.5451 4.90838 24.7709 4.39886 25.1832C3.88935 25.5956 3.54653 26.1683 3.43067 26.8006L2.26366 33.0605C2.2003 33.4025 2.21529 33.7537 2.3076 34.0894C2.3999 34.4251 2.56729 34.7372 2.79793 35.0037C3.02857 35.2702 3.31687 35.4846 3.64254 35.6319C3.96822 35.7791 4.32333 35.8555 4.6829 35.8559H32.3134C32.6769 35.8557 33.0358 35.7777 33.3643 35.6275C33.6929 35.4773 33.9829 35.2587 34.2135 34.9873C34.4441 34.7159 34.6096 34.3985 34.6981 34.0579C34.7866 33.7173 34.7959 33.362 34.7253 33.0176L33.4249 26.7469C33.2958 26.1266 32.9486 25.5685 32.4421 25.1673C31.9357 24.7661 31.3012 24.5465 30.6463 24.5457C30.3515 24.5457 30.0688 24.4326 29.8603 24.2312C29.6519 24.0298 29.5348 23.7567 29.5348 23.4719C29.5348 23.1872 29.6519 22.9141 29.8603 22.7127C30.0688 22.5113 30.3515 22.3982 30.6463 22.3982C31.8163 22.4009 32.9494 22.7944 33.8535 23.5119C34.7576 24.2295 35.3771 25.2269 35.607 26.3353L36.8926 32.6024C37.0265 33.2568 37.0089 33.9317 36.841 34.5788C36.673 35.2258 36.3589 35.829 35.9212 36.3449C35.4835 36.8608 34.933 37.2767 34.3092 37.5629C33.6855 37.849 33.0039 37.9982 32.3134 37.9998Z" fill="#F2EADF"/>
<path d="M18.3759 15.3689C20.7698 15.3689 22.7105 13.494 22.7105 11.1813C22.7105 8.86852 20.7698 6.99365 18.3759 6.99365C15.9819 6.99365 14.0413 8.86852 14.0413 11.1813C14.0413 13.494 15.9819 15.3689 18.3759 15.3689Z" fill="#F2EADF"/>
</g>
<defs>
<clipPath id="clip0_20_918">
<rect width="37" height="38" fill="white"/>
</clipPath>
</defs>
</svg>
