<svg width="23" height="30" viewBox="0 0 23 30" fill="none" xmlns="http://www.w3.org/2000/svg">
<path d="M11.5022 30C7.16905 30 0.00223814 21.6055 0.00223814 12.0433C-0.0279327 10.473 0.247197 8.91235 0.811462 7.45262C1.37573 5.99288 2.21782 4.66338 3.28848 3.54193C4.35913 2.42048 5.63681 1.5296 7.04678 0.921426C8.45676 0.313251 9.97071 0 11.5 0C13.0293 0 14.5432 0.313251 15.9532 0.921426C17.3632 1.5296 18.6409 2.42048 19.7115 3.54193C20.7822 4.66338 21.6243 5.99288 22.1885 7.45262C22.7528 8.91235 23.0279 10.473 22.9978 12.0433C22.9978 19.9321 16.5517 30 11.5022 30ZM11.5022 2.07189C8.92788 2.07432 6.45963 3.12566 4.63928 4.99512C2.81893 6.86459 1.79518 9.39943 1.79281 12.0433C1.79281 20.6998 8.30159 28.1611 11.5022 28.1611C14.8954 28.1611 21.2072 19.8861 21.2072 12.0433C21.2048 9.40023 20.1817 6.86608 18.3623 4.99675C16.5429 3.12741 14.0758 2.07554 11.5022 2.07189ZM11.5022 16.6589C10.5418 16.6571 9.60347 16.3628 8.80583 15.8135C8.00819 15.2641 7.3871 14.4841 7.02099 13.5723C6.65489 12.6604 6.56025 11.6576 6.74903 10.6905C6.93781 9.72337 7.40152 8.83547 8.08158 8.13899C8.76164 7.44251 9.62748 6.96872 10.5697 6.77752C11.5119 6.58632 12.4881 6.68629 13.375 7.0648C14.2619 7.4433 15.0196 8.08334 15.5524 8.90401C16.0852 9.72469 16.369 10.6891 16.3681 11.6755C16.3658 12.9988 15.8519 14.267 14.9395 15.2015C14.0271 16.1359 12.7908 16.6601 11.5022 16.6589ZM11.5022 8.52639C10.8956 8.52548 10.3023 8.70939 9.79746 9.05487C9.29261 9.40034 8.89888 9.89184 8.66611 10.4672C8.43333 11.0425 8.37196 11.6758 8.48977 12.287C8.60758 12.8982 8.89929 13.4597 9.32795 13.9006C9.75661 14.3415 10.3029 14.6418 10.8979 14.7637C11.4928 14.8856 12.1096 14.8235 12.6701 14.5853C13.2307 14.3471 13.7099 13.9435 14.047 13.4255C14.3841 12.9075 14.5641 12.2985 14.5641 11.6755C14.5641 10.8411 14.2417 10.0408 13.6676 9.45036C13.0935 8.85992 12.3147 8.52761 11.5022 8.52639Z" fill="#F2EADF"/>
</svg>
