<svg width="12" height="26" viewBox="0 0 12 26" fill="none" xmlns="http://www.w3.org/2000/svg">
<g clip-path="url(#clip0_40_2837)">
<path d="M12 6.00859C12.0008 4.93189 11.7124 3.87478 11.1651 2.9479C10.6179 2.02102 9.83176 1.25845 8.88913 0.740002C7.9465 0.22155 6.88199 -0.0337204 5.80702 0.000911265C4.73205 0.0355429 3.68615 0.358797 2.77877 0.936849C1.87139 1.5149 1.1359 2.3265 0.649279 3.28668C0.162658 4.24687 -0.0572235 5.32036 0.0126912 6.39478C0.0826059 7.4692 0.439739 8.50505 1.04668 9.39392C1.65362 10.2828 2.48806 10.992 3.46269 11.4473C3.81666 11.6086 4.11717 11.8679 4.32873 12.1946C4.5403 12.5213 4.65409 12.9018 4.65672 13.2911V24.5976C4.65111 24.9392 4.77172 25.2709 4.99538 25.529C5.21905 25.7871 5.53003 25.9534 5.86868 25.9961C6.0552 26.014 6.2434 25.9927 6.42124 25.9336C6.59907 25.8745 6.76263 25.7789 6.90143 25.6528C7.04023 25.5268 7.15121 25.3732 7.2273 25.2018C7.30339 25.0303 7.34289 24.8449 7.34329 24.6573V13.2911C7.34592 12.9018 7.45974 12.5213 7.67131 12.1946C7.88287 11.8679 8.18335 11.6086 8.53732 11.4473C9.57181 10.9648 10.4472 10.1967 11.0606 9.23327C11.674 8.26982 11.9999 7.15109 12 6.00859Z" fill="#F2EADF"/>
</g>
<defs>
<clipPath id="clip0_40_2837">
<rect width="12" height="26" fill="white"/>
</clipPath>
</defs>
</svg>
