<svg width="37" height="36" viewBox="0 0 37 36" fill="none" xmlns="http://www.w3.org/2000/svg">
<g clip-path="url(#clip0_30_317)">
<path d="M18.5 12.5493C17.389 12.5493 16.303 12.8698 15.3792 13.4703C14.4555 14.0708 13.7356 14.9242 13.3104 15.9228C12.8852 16.9213 12.774 18.0201 12.9907 19.0802C13.2075 20.1402 13.7425 21.114 14.528 21.8782C15.3136 22.6425 16.3145 23.163 17.4041 23.3738C18.4937 23.5847 19.6232 23.4764 20.6496 23.0628C21.676 22.6492 22.5533 21.9488 23.1705 21.0501C23.7877 20.1514 24.1172 19.0949 24.1172 18.0141C24.115 16.5654 23.5225 15.1766 22.4695 14.1523C21.4166 13.1279 19.9891 12.5514 18.5 12.5493ZM18.5 21.0732C17.8781 21.0732 17.2701 20.8938 16.753 20.5576C16.2359 20.2215 15.8329 19.7437 15.5949 19.1847C15.3569 18.6258 15.2946 18.0107 15.4159 17.4173C15.5373 16.8239 15.8367 16.2788 16.2765 15.8509C16.7163 15.4231 17.2766 15.1317 17.8865 15.0137C18.4965 14.8957 19.1287 14.9563 19.7033 15.1878C20.2779 15.4193 20.769 15.8114 21.1145 16.3145C21.46 16.8176 21.6445 17.409 21.6445 18.0141C21.6401 18.823 21.307 19.5974 20.7179 20.1683C20.1288 20.7391 19.3315 21.0601 18.5 21.0612V21.0732Z" fill="#F2EADF"/>
<path d="M35.7637 16.7992H31.152C30.8624 13.9495 29.5666 11.2855 27.4852 9.2606C25.4039 7.23572 22.6656 5.97511 19.7364 5.69329V1.20281C19.7364 0.883802 19.6061 0.577857 19.3742 0.352287C19.1424 0.126717 18.8279 0 18.5 0C18.1721 0 17.8576 0.126717 17.6258 0.352287C17.3939 0.577857 17.2636 0.883802 17.2636 1.20281V5.69329C14.3345 5.97511 11.5962 7.23572 9.5148 9.2606C7.43344 11.2855 6.13765 13.9495 5.84796 16.7992H1.23636C0.908454 16.7992 0.593975 16.9259 0.362113 17.1515C0.130251 17.3771 0 17.683 0 18.002C0 18.321 0.130251 18.6269 0.362113 18.8525C0.593975 19.0781 0.908454 19.2048 1.23636 19.2048H5.84796C6.1384 22.0542 7.43444 24.7178 9.51565 26.7426C11.5969 28.7673 14.3347 30.0282 17.2636 30.3107V34.7972C17.2636 35.1162 17.3939 35.4221 17.6258 35.6477C17.8576 35.8733 18.1721 36 18.5 36C18.8279 36 19.1424 35.8733 19.3742 35.6477C19.6061 35.4221 19.7364 35.1162 19.7364 34.7972V30.3107C22.6653 30.0282 25.4031 28.7673 27.4844 26.7426C29.5656 24.7178 30.8616 22.0542 31.152 19.2048H35.7637C36.0916 19.2048 36.406 19.0781 36.6379 18.8525C36.8697 18.6269 37 18.321 37 18.002C37 17.683 36.8697 17.3771 36.6379 17.1515C36.406 16.9259 36.0916 16.7992 35.7637 16.7992ZM18.5 27.9653C16.4745 27.9653 14.4945 27.3809 12.8103 26.2861C11.1262 25.1914 9.81354 23.6353 9.03841 21.8148C8.26328 19.9942 8.06047 17.991 8.45562 16.0583C8.85078 14.1256 9.82618 12.3503 11.2584 10.9569C12.6907 9.56353 14.5155 8.61462 16.502 8.23019C18.4886 7.84576 20.5478 8.04307 22.4191 8.79716C24.2904 9.55126 25.8899 10.8283 27.0152 12.4667C28.1405 14.1052 28.7411 16.0314 28.7411 18.002C28.7379 20.6434 27.6578 23.1758 25.738 25.0436C23.8181 26.9114 21.2151 27.9621 18.5 27.9653Z" fill="#F2EADF"/>
</g>
<defs>
<clipPath id="clip0_30_317">
<rect width="37" height="36" fill="white"/>
</clipPath>
</defs>
</svg>
