<svg width="26" height="26" viewBox="0 0 26 26" fill="none" xmlns="http://www.w3.org/2000/svg">
<g clip-path="url(#clip0_32_337)">
<path d="M13.0023 26.0045C10.4307 26.0045 7.9168 25.2419 5.77859 23.8132C3.64038 22.3845 1.97384 20.3539 0.989727 17.978C0.00561748 15.6022 -0.251849 12.9878 0.249846 10.4657C0.751541 7.94346 1.98986 5.62667 3.80825 3.80827C5.62665 1.98988 7.94345 0.751534 10.4656 0.249839C12.9878 -0.251856 15.6021 0.0056379 17.978 0.989748C20.3538 1.97386 22.3845 3.64039 23.8132 5.7786C25.2419 7.91681 26.0045 10.4307 26.0045 13.0023C25.9998 16.4492 24.6283 19.7536 22.191 22.191C19.7536 24.6283 16.4492 25.9997 13.0023 26.0045ZM13.0023 1.80337C10.7874 1.80337 8.62214 2.46017 6.78049 3.69072C4.93884 4.92127 3.50345 6.6703 2.65584 8.71663C1.80822 10.763 1.58643 13.0147 2.01854 15.1871C2.45065 17.3594 3.51726 19.3549 5.08345 20.9211C6.64965 22.4873 8.64511 23.5539 10.8175 23.986C12.9899 24.4181 15.2415 24.1963 17.2879 23.3487C19.3342 22.5011 21.0833 21.0657 22.3138 19.224C23.5444 17.3824 24.2012 15.2172 24.2012 13.0023C24.1952 10.0348 23.0131 7.1907 20.914 5.09323C18.8148 2.99575 15.9698 1.81596 13.0023 1.81239V1.80337Z" fill="#F2EADF"/>
<path d="M19.2103 14.1295H6.79416C6.49523 14.1295 6.20852 14.0107 5.99715 13.7993C5.78578 13.588 5.66705 13.3013 5.66705 13.0023C5.66705 12.7034 5.78578 12.4167 5.99715 12.2054C6.20852 11.994 6.49523 11.8752 6.79416 11.8752H19.2103C19.5092 11.8752 19.7959 11.994 20.0073 12.2054C20.2187 12.4167 20.3374 12.7034 20.3374 13.0023C20.3374 13.3013 20.2187 13.588 20.0073 13.7993C19.7959 14.0107 19.5092 14.1295 19.2103 14.1295Z" fill="#F2EADF"/>
</g>
<defs>
<clipPath id="clip0_32_337">
<rect width="26" height="26" fill="white"/>
</clipPath>
</defs>
</svg>
