<svg width="26" height="14" viewBox="0 0 26 14" fill="none" xmlns="http://www.w3.org/2000/svg">
<path d="M13.0264 14C12.2526 14 11.4879 13.8358 10.784 13.5187C10.0802 13.2015 9.45365 12.7388 8.94685 12.1618L0.438626 2.46362C0.294299 2.32456 0.180847 2.1574 0.105462 1.97278C0.0300767 1.78815 -0.00560158 1.59008 0.000713164 1.39113C0.00702791 1.19217 0.0551986 0.996686 0.142144 0.817075C0.22909 0.637464 0.352911 0.477636 0.505774 0.347766C0.658636 0.217895 0.837199 0.120819 1.03011 0.0626679C1.22302 0.00451677 1.42608 -0.0134488 1.62639 0.00996071C1.8267 0.0333702 2.01987 0.0976346 2.19368 0.198643C2.36749 0.299651 2.51811 0.435209 2.63601 0.596722L11.1491 10.2854C11.3827 10.5511 11.6714 10.7642 11.9957 10.9102C12.32 11.0562 12.6723 11.1318 13.0288 11.1318C13.3853 11.1318 13.7376 11.0562 14.0619 10.9102C14.3861 10.7642 14.6749 10.5511 14.9085 10.2854L23.4167 0.596722C23.5398 0.447642 23.692 0.324484 23.8642 0.23455C24.0365 0.144617 24.2253 0.089746 24.4195 0.0731859C24.6136 0.0566259 24.8092 0.0787017 24.9945 0.138135C25.1799 0.197568 25.3512 0.293147 25.4984 0.419171C25.6456 0.545196 25.7657 0.699119 25.8514 0.871798C25.9372 1.04448 25.987 1.23239 25.9978 1.42441C26.0086 1.61642 25.9802 1.80863 25.9142 1.9896C25.8483 2.17058 25.7462 2.33665 25.6141 2.47796L17.1058 12.1666C16.5988 12.743 15.9721 13.205 15.2682 13.5213C14.5643 13.8376 13.7998 14.0009 13.0264 14Z" fill="#F2EADF"/>
</svg>
