<svg width="18" height="18" viewBox="0 0 18 18" fill="none" xmlns="http://www.w3.org/2000/svg">
<g clip-path="url(#clip0_40_1976)">
<path d="M15.8564 3.20835C14.2976 1.38226 12.068 0.240802 9.65688 0.0344796C7.24575 -0.171843 4.85012 0.573846 2.99583 2.10788C2.72016 2.34032 2.45764 2.58751 2.20947 2.84835L1.06704 1.91763C0.987064 1.85117 0.889773 1.80824 0.786243 1.7937C0.682714 1.77917 0.577136 1.79363 0.481538 1.83543C0.38594 1.87724 0.304179 1.9447 0.245584 2.03013C0.186989 2.11556 0.15391 2.21552 0.150137 2.3186L-0.00120083 6.0825C-0.0048783 6.16741 0.0114442 6.25201 0.0464682 6.32966C0.0814921 6.40731 0.134264 6.47589 0.200668 6.53004C0.267072 6.5842 0.345295 6.62246 0.429197 6.6418C0.513098 6.66114 0.600416 6.66105 0.684277 6.64153L4.41423 5.79567C4.51564 5.77218 4.6084 5.7213 4.68213 5.64872C4.75587 5.57615 4.80767 5.48474 4.8317 5.38477C4.85573 5.28479 4.85104 5.18019 4.81819 5.08269C4.78533 4.98519 4.72562 4.89865 4.64569 4.83275L3.59524 3.97519C3.77328 3.79666 3.95429 3.62104 4.1531 3.45714C5.35897 2.45955 6.85787 1.87043 8.42886 1.77663C9.99985 1.68282 11.5598 2.08929 12.8789 2.9361C14.198 3.78292 15.2064 5.02529 15.7554 6.48013C16.3045 7.93497 16.3652 9.5253 15.9287 11.0168C15.4921 12.5082 14.5812 13.8219 13.3305 14.7641C12.0797 15.7064 10.5551 16.2274 8.98144 16.2504C7.40774 16.2734 5.86818 15.7971 4.58966 14.8918C3.31114 13.9865 2.36128 12.7 1.88009 11.222C1.80185 11.0081 1.64257 10.8325 1.43572 10.7322C1.22886 10.6318 0.990596 10.6145 0.771066 10.6839C0.551536 10.7533 0.367828 10.904 0.25866 11.1042C0.149493 11.3045 0.123365 11.5387 0.185744 11.7576C0.596939 13.0248 1.2877 14.1864 2.20834 15.1588C3.12899 16.1313 4.25665 16.8905 5.51026 17.3818C6.76386 17.8731 8.11225 18.0843 9.45849 18.0002C10.8047 17.9162 12.1154 17.539 13.2962 16.8957C14.477 16.2525 15.4986 15.3591 16.2876 14.2799C17.0766 13.2008 17.6133 11.9625 17.8593 10.6543C18.1052 9.34612 18.0542 8.00042 17.71 6.71397C17.3657 5.42752 16.7367 4.23228 15.8682 3.21421L15.8564 3.20835Z" fill="#F2EADF"/>
</g>
<defs>
<clipPath id="clip0_40_1976">
<rect width="18" height="18" fill="white"/>
</clipPath>
</defs>
</svg>
