<svg width="22" height="22" viewBox="0 0 22 22" fill="none" xmlns="http://www.w3.org/2000/svg">
<path d="M16.7838 3.22181L11 9.00559L5.21624 3.22183C4.95177 2.95735 4.59306 2.80876 4.21904 2.80876C3.84502 2.80876 3.48631 2.95735 3.22184 3.22183C2.95737 3.4863 2.80877 3.845 2.80877 4.21903C2.80877 4.59305 2.95737 4.95175 3.22184 5.21623L9.0056 11L3.22183 16.7838C2.95735 17.0482 2.80878 17.4069 2.80878 17.7809C2.80878 18.155 2.95735 18.5137 3.22183 18.7782C3.4863 19.0426 3.84503 19.1912 4.21905 19.1912C4.59307 19.1912 4.95176 19.0426 5.21623 18.7782L11 12.9944L16.7838 18.7782C17.0483 19.0426 17.407 19.1912 17.781 19.1912C18.155 19.1912 18.5137 19.0426 18.7782 18.7782C19.0427 18.5137 19.1913 18.155 19.1913 17.781C19.1913 17.407 19.0427 17.0482 18.7782 16.7838L12.9944 11L18.7782 5.21622C19.0427 4.95174 19.1912 4.59304 19.1912 4.21902C19.1912 3.84499 19.0427 3.48629 18.7782 3.22182C18.5137 2.95734 18.155 2.80875 17.781 2.80875C17.407 2.80875 17.0482 2.95734 16.7838 3.22181Z" fill="#F2EADF"/>
</svg>
