<svg width="22" height="22" viewBox="0 0 22 22" fill="none" xmlns="http://www.w3.org/2000/svg">
<path d="M20.5897 9.58973H12.4103V1.41026C12.4103 1.03623 12.2617 0.677521 11.9972 0.413046C11.7327 0.148572 11.374 0 11 0C10.626 0 10.2673 0.148572 10.0028 0.413046C9.73832 0.677521 9.58974 1.03623 9.58974 1.41026V9.58973H1.41025C1.03623 9.58973 0.677549 9.7383 0.413075 10.0028C0.1486 10.2673 0 10.626 0 11C0 11.374 0.1486 11.7327 0.413075 11.9972C0.677549 12.2617 1.03623 12.4102 1.41025 12.4102H9.58974V20.5897C9.58974 20.9638 9.73832 21.3225 10.0028 21.587C10.2673 21.8514 10.626 22 11 22C11.374 22 11.7327 21.8514 11.9972 21.587C12.2617 21.3225 12.4103 20.9638 12.4103 20.5897V12.4102H20.5897C20.9638 12.4102 21.3225 12.2617 21.587 11.9972C21.8514 11.7327 22 11.374 22 11C22 10.626 21.8514 10.2673 21.587 10.0028C21.3225 9.7383 20.9638 9.58973 20.5897 9.58973Z" fill="#F2EADF"/>
</svg>
