<svg width="19" height="17" viewBox="0 0 19 17" fill="none" xmlns="http://www.w3.org/2000/svg">
<g clip-path="url(#clip0_40_1168)">
<path d="M11.9349 6.60098H3.19503L7.48198 2.13951C7.69151 1.90765 7.80884 1.59727 7.80911 1.27408C7.80939 0.95089 7.69258 0.640282 7.48344 0.408013C7.27431 0.175743 6.98929 0.0400671 6.68868 0.0296943C6.38807 0.0193215 6.09553 0.135065 5.87296 0.352438L0.922277 5.50219C0.630691 5.80704 0.398912 6.1716 0.240654 6.57433C0.0823961 6.97706 0.000854492 7.40979 0.000854492 7.84696C0.000854492 8.28412 0.0823961 8.71683 0.240654 9.11956C0.398912 9.52228 0.630691 9.88684 0.922277 10.1917L5.87296 15.3373C6.0879 15.5621 6.37562 15.6884 6.67554 15.6898C6.90657 15.6904 7.13252 15.6168 7.32428 15.4783C7.51605 15.3399 7.66487 15.1429 7.7516 14.9128C7.83833 14.6827 7.85899 14.43 7.81095 14.1872C7.7629 13.9444 7.64833 13.7225 7.48198 13.5503L3.19503 9.08878H11.9349C13.194 9.09098 14.401 9.62942 15.2914 10.5862C16.1817 11.5429 16.6828 12.8399 16.6849 14.1929V15.7602C16.6849 16.0901 16.8069 16.4065 17.0239 16.6398C17.241 16.8731 17.5354 17.0041 17.8425 17.0041C18.1495 17.0041 18.4439 16.8731 18.661 16.6398C18.8781 16.4065 19 16.0901 19 15.7602V14.1929C18.997 12.1804 18.2517 10.2513 16.9273 8.82824C15.603 7.40519 13.8077 6.60427 11.9349 6.60098Z" fill="#F2EADF"/>
</g>
<defs>
<clipPath id="clip0_40_1168">
<rect width="19" height="17" fill="white"/>
</clipPath>
</defs>
</svg>
