<?xml version="1.0" standalone="no"?>
<!DOCTYPE svg PUBLIC "-//W3C//DTD SVG 1.1//EN" "http://www.w3.org/Graphics/SVG/1.1/DTD/svg11.dtd" >
<svg xmlns="http://www.w3.org/2000/svg">
<metadata>Generated by IcoMoon</metadata>
<defs>
<font id="icomoon" horiz-adv-x="1024">
<font-face units-per-em="1024" ascent="960" descent="-64" />
<missing-glyph horiz-adv-x="1024" />
<glyph unicode="&#x20;" horiz-adv-x="512" d="" />
<glyph unicode="&#xe900;" glyph-name="bike" horiz-adv-x="1404" d="M260.869-44.664c144.073 0 260.87 118.553 260.87 264.795 0 146.245-116.797 264.798-260.87 264.798-144.074 0-260.869-118.553-260.869-264.798 0-146.242 116.795-264.795 260.869-264.795zM1127.003 500.3c-43.611 0.015-86.613-10.395-125.525-30.384l-50.752 76.136c-4.895 6.644-10.316 12.87-16.208 18.613v252.908c-0.032 37.743-14.81 73.933-41.092 100.633s-61.923 41.729-99.106 41.793h-117.479c-9.412 0-18.441-3.796-25.097-10.552s-10.395-15.92-10.395-25.475c0-9.555 3.739-18.719 10.395-25.475s15.685-10.552 25.097-10.552h117.125c18.368-0.032 35.969-7.46 48.947-20.654 12.976-13.194 20.263-31.075 20.263-49.718v-211.357c-13.523 3.836-27.487 5.816-41.528 5.884h-349.125c0 1.682 0 3.485 0 5.287v82.86h47.323c9.412 0 18.441 3.796 25.097 10.552s10.395 15.92 10.395 25.474c0 9.555-3.739 18.718-10.395 25.474s-15.685 10.552-25.097 10.552h-166.224c-9.412 0-18.441-3.796-25.097-10.552s-10.395-15.92-10.395-25.474c0-9.555 3.739-18.718 10.395-25.474s15.685-10.552 25.097-10.552h47.323v-82.983c-0.047-19.661 4.734-39.023 13.903-56.34 9.172-17.317 22.446-32.045 38.625-42.853 48.748-32.432 88.775-76.671 116.473-128.726 27.698-52.057 42.192-110.291 42.18-169.454 0-9.555 3.739-18.719 10.395-25.474 6.656-6.758 15.685-10.553 25.097-10.553s18.441 3.795 25.097 10.553c6.656 6.755 10.395 15.919 10.395 25.474-0.012 60.504-12.674 120.314-37.148 175.484-24.474 55.167-60.199 104.439-104.822 144.554h280.392c13.768-0.038 27.341-3.309 39.658-9.561 12.314-6.249 23.037-15.307 31.326-26.466l49.57-74.337c-48.719-43.754-80.779-103.465-90.604-168.741-9.825-65.273 3.212-131.979 36.841-188.501 33.631-56.525 85.721-99.29 147.207-120.852 61.484-21.563 128.474-20.559 189.305 2.841 60.829 23.397 111.651 67.707 143.62 125.215 31.966 57.508 43.055 124.574 31.337 189.528-11.72 64.951-45.507 123.673-95.481 165.947s-112.968 65.425-178.021 65.419l0.711-0.12zM1127.003 7.935c-41.241-0.023-81.546 12.464-115.744 35.858s-60.732 56.627-76.194 95.434c-15.459 38.81-19.143 81.423-10.576 122.368 8.566 40.948 28.991 78.365 58.652 107.447l107.78-162c3.253-4.889 7.645-8.891 12.78-11.656 5.138-2.765 10.863-4.204 16.679-4.195 7.071 0.026 13.982 2.156 19.874 6.124 3.865 2.657 7.174 6.056 9.74 10.012 2.569 3.956 4.342 8.385 5.222 13.037 0.878 4.649 0.846 9.433-0.097 14.070-0.945 4.637-2.779 9.040-5.401 12.961l-108.134 162c26.735 12.405 55.788 18.836 85.182 18.853 53.699-1.843 104.591-24.793 141.938-64.003 37.344-39.21 58.219-91.616 58.219-146.154s-20.875-106.944-58.219-146.154c-37.347-39.21-88.24-62.16-141.938-64h0.237z" />
<glyph unicode="&#xe901;" glyph-name="bottom" d="M965.942 173.068c-8.212-0.090-16.349 1.552-23.867 4.821-7.515 3.269-14.237 8.090-19.712 14.135l-336.734 384.397c-9.244 10.521-20.673 18.959-33.508 24.741-12.832 5.783-26.778 8.775-40.885 8.775s-28.050-2.992-40.885-8.775c-12.835-5.783-24.261-14.22-33.508-24.741l-336.927-383.83c-10.153-10.858-24.187-17.389-39.132-18.208s-29.625 4.139-40.931 13.824c-11.306 9.685-18.35 23.335-19.639 38.057s3.278 29.361 12.734 40.818l336.735 383.83c20.058 22.845 44.857 41.167 72.713 53.724s58.12 19.055 88.746 19.055c30.622 0 60.885-6.498 88.741-19.055s52.654-30.879 72.712-53.724l336.738-383.83c7.436-8.212 12.3-18.377 13.997-29.266 1.697-10.886 0.153-22.028-4.443-32.067-4.596-10.035-12.048-18.542-21.445-24.477-9.397-5.939-20.342-9.050-31.5-8.964v0.76z" />
<glyph unicode="&#xe902;" glyph-name="map" horiz-adv-x="997" d="M495.182 213.776c-116.008 0-307.791 209.871-307.791 448.97 0 78.863 32.428 154.495 90.15 210.26 57.721 55.764 136.009 87.093 217.64 87.093s159.919-31.328 217.643-87.093c57.721-55.764 90.15-131.397 90.15-210.26 0-197.336-172.614-448.97-307.793-448.97zM495.182 902.229c-65.719-0.077-128.725-25.332-175.196-70.228-46.473-44.895-72.615-105.764-72.694-169.255 0-217.686 178.007-391.101 247.89-391.101 86.159 0 247.892 207.171 247.892 391.101-0.105 63.475-26.26 124.319-72.728 169.193s-109.46 70.117-175.163 70.193v0.096zM870.761-63.995h-744.569c-18.429 0.032-36.626 3.967-53.313 11.52-16.687 7.556-31.459 18.551-43.277 32.21s-20.396 29.656-25.131 46.861c-4.734 17.206-5.511 35.204-2.274 52.733l31.248 168.688c5.588 30.415 22.091 57.958 46.612 77.784 24.521 19.828 55.49 30.669 87.466 30.626 7.944 0 15.562-3.048 21.178-8.475s8.772-12.787 8.772-20.458c0-7.675-3.155-15.034-8.772-20.461s-13.235-8.475-21.178-8.475c-17.911 0.016-35.256-6.069-48.986-17.179-13.73-11.113-22.968-26.546-26.090-43.585l-31.448-168.688c-1.707-9.216-1.303-18.68 1.184-27.726s6.998-17.457 13.213-24.638c6.215-7.181 13.984-12.959 22.76-16.928 8.776-3.967 18.345-6.025 28.035-6.036h744.569c9.795 0.005 19.467 2.107 28.319 6.155 8.855 4.047 16.67 9.938 22.884 17.252s10.674 15.867 13.059 25.045c2.385 9.178 2.635 18.753 0.733 28.033l-35.042 168.979c-3.479 16.715-12.835 31.755-26.484 42.566-13.646 10.811-30.744 16.729-48.392 16.75-7.944 0-15.562 3.048-21.181 8.475-5.616 5.427-8.771 12.787-8.771 20.461 0 7.672 3.156 15.031 8.771 20.458 5.619 5.427 13.237 8.475 21.181 8.475 31.528-0.073 62.062-10.677 86.426-30.011 24.363-19.337 41.057-46.215 47.252-76.083l34.644-168.882c3.608-17.634 3.134-35.821-1.39-53.259-4.527-17.435-12.991-33.69-24.786-47.592s-26.629-25.11-43.439-32.822c-16.807-7.71-35.174-11.73-53.782-11.773zM495.182 545.849c64.509 0 116.806 50.524 116.806 112.845 0 62.323-52.297 112.846-116.806 112.846-64.512 0-116.806-50.523-116.806-112.846 0-62.321 52.294-112.845 116.806-112.845z" />
<glyph unicode="&#xe903;" glyph-name="route" horiz-adv-x="1129" d="M952.309 389.23c-23.213 0.013-46.206-4.545-67.658-13.417s-40.947-21.882-57.368-38.29c-16.421-16.408-29.447-35.887-38.334-57.328-8.885-21.441-13.462-44.423-13.462-67.634 0-148.459 115.725-276.559 176.821-276.559 69.159 0 176.716 147.506 176.716 276.559 0 46.857-18.618 91.792-51.759 124.925-33.141 33.13-78.089 51.744-124.957 51.744zM952.309 136.318c-14.685 0-29.040 4.353-41.251 12.509-12.209 8.158-21.727 19.75-27.346 33.314s-7.089 28.488-4.225 42.89c2.865 14.399 9.935 27.624 20.32 38.006s23.615 17.45 38.017 20.315c14.404 2.865 29.334 1.394 42.9-4.225 13.567-5.616 25.164-15.132 33.322-27.338 8.16-12.207 12.514-26.558 12.514-41.241 0-19.687-7.822-38.568-21.748-52.489-13.924-13.921-32.81-21.74-52.502-21.74zM226.599 766.934c49.324 8.005 82.819 54.468 74.814 103.779-8.008 49.311-54.483 82.797-103.808 74.793s-82.82-54.468-74.813-103.779c8.006-49.311 54.483-82.797 103.807-74.793zM703.362 30.807h-435.638c-54.125 0-106.034 21.496-144.307 59.76-38.273 38.261-59.774 90.157-59.774 144.268s21.501 106.008 59.774 144.268c38.273 38.263 90.182 59.76 144.307 59.76h405.302c29.877-0.651 59.584 4.671 87.379 15.654 27.792 10.983 53.111 27.401 74.474 48.299 21.36 20.895 38.332 45.846 49.919 73.387s17.555 57.116 17.555 86.993c0 29.88-5.968 59.455-17.555 86.996s-28.559 52.491-49.919 73.387c-21.362 20.896-46.681 37.316-74.474 48.298-27.795 10.982-57.502 16.304-87.379 15.655h-248.315c-8.439 0-16.534-3.351-22.502-9.318s-9.318-14.058-9.318-22.495c0-8.437 3.35-16.529 9.318-22.495s14.063-9.318 22.502-9.318h248.315c21.457 0.551 42.808-3.198 62.792-11.027 19.986-7.829 38.2-19.578 53.574-34.556 15.371-14.978 27.588-32.88 35.929-52.653s12.637-41.015 12.637-62.474c0-21.457-4.296-42.701-12.637-62.472-8.342-19.774-20.559-37.675-35.929-52.652-15.373-14.979-33.587-26.729-53.574-34.556-19.984-7.83-41.335-11.579-62.792-11.028h-405.302c-71.004 0-139.1-28.199-189.308-78.394s-78.415-118.272-78.415-189.259c0-70.987 28.207-139.064 78.415-189.259s118.305-78.394 189.308-78.394h435.638c8.439 0 16.534 3.35 22.499 9.318 5.968 5.965 9.321 14.058 9.321 22.494s-3.353 16.528-9.321 22.496c-5.965 5.965-14.060 9.316-22.499 9.316z" />
<glyph unicode="&#xe904;" glyph-name="setting" horiz-adv-x="1123" d="M1084.783 877.34h-557.205c-8.063 24.039-23.499 44.942-44.124 59.752s-45.4 22.779-70.818 22.779c-25.415 0-50.189-7.968-70.815-22.779-20.628-14.81-36.064-35.713-44.125-59.752h-259.383c-10.161 0-19.907-4.025-27.092-11.191s-11.222-16.884-11.222-27.018c0-10.134 4.036-19.852 11.222-27.018s16.931-11.191 27.092-11.191h259.383c8.062-24.039 23.497-44.941 44.125-59.752 20.625-14.81 45.4-22.779 70.815-22.779 25.418 0 50.193 7.969 70.818 22.779s36.061 35.713 44.124 59.752h557.205c10.161 0 19.909 4.025 27.093 11.191s11.221 16.884 11.221 27.018c0 10.134-4.037 19.852-11.221 27.018s-16.932 11.191-27.093 11.191zM1084.783 95.202h-557.205c-8.063 24.038-23.499 44.94-44.124 59.752s-45.4 22.779-70.818 22.779c-25.415 0-50.189-7.967-70.815-22.779-20.628-14.812-36.064-35.714-44.125-59.752h-259.383c-10.161 0-19.907-4.027-27.092-11.191s-11.222-16.883-11.222-27.017c0-10.134 4.036-19.852 11.222-27.017 7.185-7.168 16.931-11.191 27.092-11.191h259.383c7.997-24.1 23.408-45.076 44.043-59.94s45.442-22.868 70.897-22.868c25.455 0 50.265 8.004 70.897 22.868 20.635 14.865 36.048 35.84 44.045 59.94h557.205c10.161 0 19.909 4.023 27.093 11.191 7.185 7.165 11.221 16.883 11.221 27.017s-4.037 19.852-11.221 27.017c-7.185 7.165-16.932 11.191-27.093 11.191zM1084.783 486.208h-206.637c-7.997 24.1-23.41 45.076-44.042 59.94-20.635 14.865-45.442 22.868-70.9 22.868-25.455 0-50.262-8.004-70.897-22.868-20.632-14.865-36.045-35.84-44.042-59.94h-609.951c-10.161 0-19.907-4.027-27.092-11.191s-11.222-16.883-11.222-27.017c0-10.134 4.036-19.852 11.222-27.017 7.185-7.168 16.931-11.191 27.092-11.191h609.951c8.063-24.041 23.496-44.94 44.124-59.752 20.625-14.812 45.4-22.779 70.815-22.779 25.418 0 50.193 7.967 70.818 22.779s36.061 35.711 44.124 59.752h206.637c10.161 0 19.909 4.023 27.093 11.191 7.185 7.165 11.221 16.883 11.221 27.017s-4.037 19.852-11.221 27.017c-7.185 7.165-16.932 11.191-27.093 11.191z" />
<glyph unicode="&#xe905;" glyph-name="top" d="M513.040 172.308c-30.476 0-60.593 6.467-88.316 18.956-27.719 12.493-52.395 30.716-72.355 53.441l-335.093 381.959c-5.684 5.477-10.153 12.060-13.122 19.331s-4.374 15.073-4.126 22.908c0.249 7.836 2.146 15.535 5.57 22.609s8.301 13.369 14.321 18.484c6.021 5.115 13.053 8.938 20.651 11.229s15.595 2.998 23.484 2.076c7.889-0.922 15.497-3.453 22.342-7.431s12.778-9.317 17.421-15.678l335.284-381.585c9.2-10.464 20.571-18.857 33.343-24.608s26.647-8.727 40.688-8.727c14.040 0 27.916 2.978 40.688 8.727 12.769 5.75 24.143 14.143 33.343 24.608l335.092 381.585c4.848 5.871 10.842 10.722 17.624 14.264 6.786 3.542 14.222 5.703 21.87 6.355 7.645 0.652 15.348-0.217 22.646-2.558 7.302-2.341 14.048-6.105 19.846-11.069s10.527-11.026 13.903-17.826c3.379-6.801 5.34-14.202 5.766-21.765s-0.693-15.132-3.293-22.26c-2.595-7.128-6.617-13.668-11.819-19.234l-335.095-381.583c-19.968-22.702-44.65-40.897-72.373-53.354s-57.832-18.889-88.293-18.853z" />
<glyph unicode="&#xe906;" glyph-name="address" horiz-adv-x="785" d="M392.608-64c-147.905 0-392.532 286.532-392.532 612.922-1.030 53.6 8.361 106.87 27.622 156.695s48.004 95.206 84.549 133.485c36.545 38.279 80.156 68.688 128.283 89.447s99.803 31.451 152.003 31.451c52.2 0 103.875-10.692 152.003-31.451s91.74-51.168 128.283-89.447c36.547-38.279 65.29-83.659 84.548-133.485 19.261-49.825 28.652-103.096 27.624-156.695 0-269.271-220.027-612.922-392.383-612.922zM392.608 889.279c-87.87-0.083-172.12-35.969-234.254-99.78s-97.079-150.334-97.16-240.578c0-295.475 222.166-550.154 331.414-550.154 115.821 0 331.264 282.453 331.264 550.154-0.082 90.217-35.004 176.716-97.106 240.522s-146.313 99.711-234.158 99.835zM392.608 391.376c-32.782 0.061-64.81 10.107-92.036 28.856-27.226 18.753-48.426 45.377-60.923 76.5-12.496 31.126-15.727 65.355-9.283 98.365s22.272 63.318 45.484 87.092 52.767 39.945 84.928 46.472c32.16 6.526 65.481 3.114 95.754-9.806s56.136-34.766 74.322-62.778c18.186-28.013 27.873-60.931 27.843-94.6-0.079-45.169-17.62-88.457-48.763-120.354-31.143-31.894-73.342-49.787-117.327-49.746zM392.608 668.966c-20.705 0.031-40.957-6.246-58.188-18.039s-30.672-28.569-38.617-48.208c-7.946-19.637-10.040-41.254-6.019-62.116s13.978-40.028 28.61-55.078c14.632-15.049 33.278-25.3 53.588-29.46 20.306-4.161 41.359-2.041 60.491 6.089 19.135 8.131 35.492 21.907 46.998 39.588s17.65 38.468 17.65 59.733c0 28.481-11.005 55.798-30.601 75.951s-46.179 31.497-73.912 31.538z" />
<glyph unicode="&#xe907;" glyph-name="attraction" horiz-adv-x="1221" d="M610.462 133.1c-50.66-0.024-100.194 14.505-142.332 41.752-42.138 27.242-74.986 65.981-94.391 111.309s-24.496 95.216-14.628 143.348c9.868 48.132 34.252 92.345 70.068 127.055 35.816 34.707 81.451 58.347 131.139 67.929s101.195 4.677 148.003-14.096c46.809-18.773 86.816-50.572 114.968-91.371 28.148-40.799 43.173-88.769 43.173-137.842-0.067-65.753-27.057-128.796-75.047-175.305-47.99-46.505-113.065-72.676-180.953-72.779zM610.462 554.346c-35.367-0.098-69.912-10.35-99.265-29.456-29.357-19.105-52.208-46.21-65.666-77.891-13.458-31.677-16.92-66.509-9.949-100.096 6.971-33.583 24.064-64.414 49.117-88.592 25.056-24.182 56.946-40.625 91.644-47.258s70.648-3.151 103.306 9.996c32.658 13.151 60.558 35.379 80.179 63.882s30.078 61.999 30.054 96.252c-0.035 22.784-4.703 45.336-13.741 66.371-9.035 21.035-22.264 40.141-38.924 56.222-16.664 16.081-36.435 28.822-58.183 37.498-21.748 8.68-45.052 13.119-68.573 13.072zM975.77-64.032h-730.676c-64.896 0.232-127.056 25.348-172.884 69.853s-71.594 104.779-71.661 167.637v393.193c0.204 62.759 26.034 122.892 71.851 167.27s107.9 69.396 172.694 69.594h90.867l32.564 76.295c9.925 23.604 26.905 43.798 48.76 57.991s47.584 21.739 73.897 21.67h238.497c26.313 0.069 52.047-7.477 73.901-21.67s38.833-34.387 48.758-57.991l32.177-76.045h91.254c64.792-0.197 126.878-25.216 172.694-69.594s71.645-104.511 71.849-167.27v-393.194c0-62.901-25.734-123.238-71.57-167.798s-108.036-69.707-172.973-69.939zM245.093 729.214c-44.314-0.197-86.754-17.334-118.089-47.685s-49.028-71.459-49.232-114.38v-393.195c0.033-43.028 17.653-84.295 49.005-114.783 31.353-30.484 73.89-47.707 118.315-47.904h730.676c44.422 0.197 86.961 17.42 118.311 47.904 31.354 30.488 48.975 71.755 49.006 114.783v393.195c-0.201 42.922-17.896 84.030-49.231 114.38s-73.775 47.488-118.087 47.685h-90.868c-15.423-0.045-30.507 4.385-43.307 12.717s-22.729 20.185-28.514 34.033l-32.177 76.046c-4.171 9.882-11.307 18.324-20.484 24.236s-19.976 9.020-30.996 8.925h-238.241c-11.036 0.085-21.843-3.041-31.023-8.977s-16.309-14.404-20.46-24.309l-32.177-75.921c-5.782-13.848-15.713-25.701-28.513-34.033s-27.882-12.761-43.304-12.717h-90.611z" />
<glyph unicode="&#xe908;" glyph-name="back" horiz-adv-x="1144" d="M718.902 562.388h-526.449l258.226 268.738c12.621 13.966 19.689 32.662 19.705 52.129s-7.019 38.177-19.617 52.168c-12.597 13.991-29.765 22.163-47.873 22.788s-35.729-6.347-49.135-19.441l-298.206-310.197c-17.564-18.363-31.525-40.322-41.058-64.581s-14.444-50.324-14.444-76.657c0-26.332 4.912-52.397 14.444-76.655s23.494-46.217 41.058-64.581l298.206-309.947c12.947-13.541 30.278-21.149 48.344-21.233 13.916-0.036 27.526 4.397 39.077 12.74 11.551 8.337 20.516 20.203 25.74 34.063s6.469 29.082 3.575 43.707c-2.894 14.625-9.795 27.991-19.816 38.364l-258.226 268.741h526.449c75.842-0.133 148.546-32.566 202.18-90.198 53.627-57.627 83.811-135.752 83.938-217.251v-94.407c0-19.872 7.349-38.93 20.42-52.983 13.077-14.053 30.81-21.944 49.309-21.944 18.492 0 36.226 7.891 49.303 21.944s20.42 33.111 20.42 52.983v94.407c-0.181 121.224-45.074 237.423-124.85 323.142-79.77 85.718-187.91 133.961-300.719 134.16z" />
<glyph unicode="&#xe909;" glyph-name="closed" d="M512.091-64.177c-101.281 0-200.29 30.035-284.503 86.304s-149.849 136.243-188.608 229.817c-38.759 93.57-48.899 196.537-29.14 295.869 19.759 99.337 68.53 190.583 140.146 262.2s162.863 120.388 262.197 140.147c99.336 19.759 202.299 9.618 295.873-29.141 93.57-38.759 173.548-104.395 229.817-188.607s86.304-183.221 86.304-284.503c-0.185-135.755-54.201-265.897-150.193-361.893-95.996-95.992-226.139-150.004-361.893-150.193zM512.091 888.975c-87.233 0-172.511-25.868-245.044-74.333s-129.065-117.35-162.448-197.944c-33.383-80.595-42.118-169.278-25.1-254.837 17.018-85.555 59.027-164.147 120.71-225.831s140.275-103.692 225.833-120.71c85.559-17.018 174.238-8.283 254.834 25.1 80.593 33.382 149.48 89.915 197.943 162.45 48.467 72.531 74.335 157.806 74.335 245.039-0.236 116.874-46.793 228.888-129.465 311.496-82.676 82.608-194.725 129.074-311.599 129.215v0.355zM756.59 403.515h-489.005c-11.773 0-23.065 4.679-31.39 13.005-8.325 8.322-13.001 19.614-13.001 31.39 0 11.772 4.676 23.064 13.001 31.386 8.325 8.326 19.617 13.005 31.39 13.005h489.005c11.772 0 23.064-4.679 31.39-13.005 8.326-8.322 13.001-19.614 13.001-31.386 0-11.776-4.675-23.068-13.001-31.39-8.326-8.326-19.617-13.005-31.39-13.005z" />
<glyph unicode="&#xe90a;" glyph-name="mark" horiz-adv-x="473" d="M472.615 723.354c0.032 42.405-11.327 84.039-32.882 120.544-21.551 36.505-52.513 66.538-89.638 86.957s-79.050 30.473-121.388 29.109c-42.337-1.364-83.53-14.095-119.266-36.862s-64.704-54.731-83.869-92.547c-19.165-37.817-27.825-80.096-25.072-122.411s16.819-83.112 40.723-118.12c23.904-35.008 56.768-62.94 95.154-80.872 13.941-6.353 25.776-16.565 34.109-29.432s12.814-27.853 12.918-43.185v-445.302c-0.221-13.454 4.529-26.518 13.338-36.683s21.057-16.715 34.395-18.397c7.346-0.705 14.758 0.134 21.762 2.462s13.446 6.093 18.912 11.059c5.467 4.962 9.837 11.012 12.834 17.762 2.997 6.754 4.552 14.056 4.568 21.445v447.653c0.104 15.332 4.586 30.318 12.919 43.185s20.166 23.079 34.107 29.432c40.743 19.003 75.22 49.254 99.378 87.199s36.994 82.006 36.998 127.003z" />
<glyph unicode="&#xe90b;" glyph-name="phone" d="M761.785-63.996c-29.302-0.138-58.297 5.967-85.055 17.904-291.544 130.292-525.315 362.795-657.193 653.634-20.144 43.7-24.876 92.939-13.428 139.677s38.402 88.214 76.461 117.657l89.535 69.661c23.533 18.134 52.855 27.096 82.503 25.218s57.604-14.468 78.661-35.425l116.755-116.758c19.799-19.609 32.288-45.409 35.379-73.104 3.096-27.695-3.387-55.614-18.369-79.111l-38.321-60.349c-1.93-2.912-2.773-6.411-2.379-9.882s1.997-6.693 4.529-9.101l209.156-209.16c2.505-2.43 5.746-3.958 9.212-4.348s6.963 0.382 9.945 2.198l60.349 38.321c23.45 14.994 51.326 21.5 78.99 18.436s53.441-15.51 73.043-35.269l116.933-116.937c20.894-21.098 33.43-49.061 35.273-78.702 1.843-29.637-7.125-58.939-25.246-82.467l-69.12-89.537c-19.822-25.6-45.225-46.34-74.268-60.644-29.046-14.308-60.967-21.799-93.345-21.91zM247.138 889.051c-11.277 0.069-22.252-3.652-31.16-10.565l-89.535-69.662c-25.241-19.649-43.098-47.254-50.672-78.332s-4.421-63.805 8.949-92.865c124.695-274.816 345.569-494.55 621.017-617.816 28.79-12.56 60.956-15.12 91.364-7.263 30.413 7.853 57.32 25.667 76.426 50.597l68.943 89.541c7.597 9.748 11.37 21.933 10.61 34.265-0.756 12.335-5.994 23.969-14.73 32.709l-116.933 116.937c-8.094 8.251-18.786 13.454-30.275 14.726-11.485 1.272-23.056-1.461-32.76-7.739l-60.345-38.144c-16.589-10.528-36.269-15.092-55.796-12.942-19.527 2.146-37.742 10.878-51.645 24.761l-209.155 209.341c-13.907 13.883-22.675 32.087-24.856 51.617s2.355 39.22 12.858 55.829l38.322 60.17c6.191 9.761 8.877 21.343 7.605 32.834-1.268 11.491-6.416 22.207-14.592 30.381l-116.932 116.759c-4.814 4.807-10.544 8.599-16.849 11.152s-13.057 3.815-19.859 3.711z" />
<glyph unicode="&#xe90c;" glyph-name="position" horiz-adv-x="1052" d="M526.222 603.042c-31.602 0-62.492-9.116-88.769-26.197-26.274-17.081-46.751-41.355-58.846-69.76-12.095-28.402-15.258-59.657-9.094-89.81 6.167-30.151 21.385-57.85 43.728-79.588 22.346-21.74 50.816-36.545 81.809-42.542 30.993-5.999 63.121-2.918 92.316 8.846s54.15 31.687 71.706 57.25c17.556 25.563 26.928 55.615 26.928 86.357-0.063 41.207-16.916 80.711-46.868 109.847-29.949 29.138-70.554 45.537-112.91 45.596zM526.222 360.585c-17.69 0-34.984 5.103-49.692 14.666-14.709 9.56-26.172 23.151-32.942 39.051-6.77 15.898-8.542 33.394-5.092 50.273 3.453 16.879 11.969 32.384 24.479 44.555 12.51 12.169 28.447 20.457 45.796 23.814 17.351 3.356 35.334 1.633 51.678-4.952s30.313-17.738 40.141-32.048c9.828-14.31 15.076-31.132 15.076-48.344-0.125-23.009-9.6-45.036-26.357-61.275-16.757-16.236-39.435-25.367-63.087-25.398v-0.341zM1017.279 482.156h-131.177c-8.238 81.058-45.096 156.834-104.3 214.431-59.201 57.597-137.091 93.454-220.41 101.47v127.729c0 9.074-3.706 17.776-10.303 24.193-6.593 6.416-15.539 10.021-24.866 10.021s-18.273-3.604-24.866-10.021c-6.596-6.416-10.303-15.119-10.303-24.193v-127.729c-83.317-8.016-161.206-43.874-220.41-101.47s-96.061-133.373-104.301-214.431h-131.174c-9.327 0-18.272-3.604-24.867-10.021s-10.3-15.118-10.3-24.192c0-9.074 3.705-17.775 10.3-24.192s15.54-10.021 24.867-10.021h131.174c8.261-81.050 45.127-156.814 104.325-214.409 59.2-57.591 137.075-93.457 220.386-101.493v-127.616c0-9.074 3.706-17.775 10.303-24.192 6.593-6.417 15.539-10.021 24.866-10.021s18.273 3.604 24.866 10.021c6.596 6.417 10.303 15.118 10.303 24.192v127.616c83.311 8.036 161.186 43.901 220.388 101.493 59.199 57.594 96.063 133.359 104.323 214.409h131.177c9.327 0 18.27 3.604 24.866 10.021 6.593 6.417 10.3 15.118 10.3 24.192s-3.706 17.775-10.3 24.192c-6.596 6.417-15.539 10.021-24.866 10.021zM526.222 164.543c-57.614 0-113.934 16.623-161.84 47.764-47.903 31.138-85.241 75.401-107.289 127.184-22.048 51.786-27.817 108.766-16.577 163.74s38.985 105.472 79.724 145.106c40.741 39.634 92.646 66.625 149.151 77.56 56.508 10.935 115.081 5.323 168.309-16.127s98.725-57.775 130.734-104.378c32.009-46.606 49.092-101.396 49.092-157.449-0.091-75.133-30.814-147.166-85.422-200.294-54.61-53.129-128.651-83.015-205.881-83.106z" />
<glyph unicode="&#xe90d;" glyph-name="remove" d="M781.21 810.039l-269.21-269.209-269.208 269.208c-12.31 12.31-29.006 19.227-46.415 19.227s-34.105-6.916-46.415-19.227c-12.31-12.31-19.227-29.006-19.227-46.415s6.917-34.105 19.227-46.415l269.208-269.208-269.208-269.21c-12.31-12.307-19.226-29.002-19.226-46.41 0-17.413 6.915-34.109 19.226-46.42 12.31-12.307 29.007-19.223 46.416-19.223s34.104 6.917 46.414 19.223l269.208 269.21 269.21-269.21c12.311-12.307 29.007-19.223 46.415-19.223s34.104 6.917 46.415 19.223c12.311 12.311 19.228 29.007 19.228 46.415s-6.917 34.109-19.228 46.415l-269.21 269.21 269.21 269.209c12.311 12.31 19.223 29.006 19.223 46.415s-6.912 34.105-19.223 46.415c-12.311 12.31-29.007 19.227-46.415 19.227s-34.109-6.916-46.415-19.226z" />
<glyph unicode="&#xe90e;" glyph-name="search" d="M1005.85 41.395l-212.019 212.019c67.174 89.301 97.993 200.751 86.238 311.877s-65.203 213.663-149.568 286.938c-84.369 73.275-193.382 111.838-305.059 107.914s-217.711-50.044-296.727-129.060c-79.017-79.016-125.137-185.053-129.061-296.73s34.64-220.687 107.915-305.056c73.275-84.369 175.813-137.818 286.938-149.568 111.127-11.755 222.577 19.063 311.878 86.234l212.015-212.843c11.601-11.588 27.328-18.095 43.725-18.095s32.124 6.507 43.725 18.095c5.862 5.76 10.517 12.629 13.696 20.207s4.817 15.714 4.817 23.932c0 8.218-1.638 16.35-4.817 23.927s-7.834 14.447-13.696 20.207zM216.556 293.837c-44.428 44.459-74.679 101.086-86.926 162.735-12.247 61.645-5.94 125.536 18.122 183.599s64.796 107.688 117.057 142.602c52.261 34.914 113.7 53.549 176.552 53.549 62.848 0 124.288-18.635 176.55-53.549 52.258-34.914 92.996-84.539 117.060-142.602 24.060-58.063 30.366-121.954 18.116-183.599-12.245-61.649-42.496-118.276-86.921-162.735-59.635-59.597-140.497-93.073-224.806-93.073-84.311 0-165.169 33.476-224.805 93.073z" />
<glyph unicode="&#xe90f;" glyph-name="station" horiz-adv-x="683" d="M264.936 480.32c-4.38-0.637-8.845-0.23-13.043 1.186-4.198 1.413-8.017 3.8-11.15 6.968s-5.5 7.031-6.909 11.284c-1.411 4.253-1.827 8.781-1.215 13.228v219.279c-0.612 4.445-0.196 8.973 1.215 13.226 1.409 4.254 3.775 8.117 6.909 11.285s6.952 5.553 11.15 6.969c4.198 1.415 8.663 1.821 13.043 1.186h96.267c24.706 1.572 49.213-5.367 69.546-19.692 8.005-6.434 14.395-14.703 18.644-24.126s6.233-19.734 5.794-30.085c0.273-13.863-3.718-27.466-11.419-38.921-7.778-11.050-18.575-19.547-31.061-24.442 14.589-3.655 27.541-12.181 36.771-24.21 8.911-12.418 13.455-27.511 12.905-42.86 0.546-11.232-1.525-22.435-6.048-32.7s-11.373-19.304-19.988-26.378c-20.569-15.137-45.654-22.624-71.031-21.197h-100.377zM291.544 647.819h58.926c30.263 0 45.677 11.585 45.677 35.562s-15.187 34.75-45.677 34.75h-58.926v-70.312zM291.544 526.768h65.663c12.386-1.067 24.758 2.203 35.057 9.268 3.9 3.518 6.956 7.892 8.936 12.791 1.977 4.899 2.829 10.19 2.483 15.474 0.344 5.213-0.51 10.436-2.492 15.26-1.98 4.824-5.036 9.116-8.927 12.541-10.283 7.104-22.658 10.417-35.057 9.382h-65.663v-74.716zM341.347 51.246c-6.058 0-11.867 2.442-16.15 6.786s-6.69 10.238-6.69 16.382v145.028c-0.132 13.125-4.763 25.793-13.098 35.833s-19.854 16.823-32.581 19.19c-61.275 12.775-117.911 42.384-163.722 85.595s-79.035 98.361-96.041 159.425c-17.006 61.067-17.142 125.697-0.392 186.834 16.75 61.139 49.742 116.432 95.371 159.841 34.017 32.528 74.308 57.555 118.334 73.504s90.83 22.475 137.465 19.165c75.79-5.094 147.74-35.685 204.459-86.931 56.72-51.245 94.968-120.217 108.69-195.997 13.724-75.778 2.134-154.037-32.927-222.383-35.064-68.346-91.598-122.878-160.656-154.961-2.728-1.263-5.678-1.966-8.677-2.073-2.997-0.107-5.985 0.385-8.795 1.45s-5.386 2.681-7.582 4.756c-2.194 2.075-3.964 4.567-5.209 7.336-1.245 2.767-1.939 5.759-2.046 8.8-0.105 3.040 0.382 6.073 1.431 8.922 1.049 2.851 2.642 5.464 4.688 7.691 2.046 2.225 4.503 4.021 7.232 5.284 59.922 27.73 108.997 74.964 139.446 134.205 30.447 59.24 40.523 127.099 28.626 192.808-11.897 65.711-45.081 125.511-94.292 169.913s-111.632 70.866-177.357 75.192c-40.352 2.662-80.812-3.101-118.88-16.933-38.069-13.831-72.935-35.437-102.444-63.481s-53.034-61.93-69.119-99.563c-16.085-37.633-24.388-78.213-24.396-119.23 0.23-68.981 23.797-135.792 66.761-189.263s102.723-90.36 169.284-104.5c23.115-4.394 43.996-16.828 59.046-35.16s23.327-41.415 23.402-65.272v-145.028c0-3.072-0.601-6.112-1.77-8.947-1.17-2.833-2.881-5.402-5.038-7.557-2.157-2.157-4.717-3.857-7.528-4.999-2.81-1.145-5.819-1.709-8.845-1.663zM570.639-64.118h-458.612c-6.057 0-11.866 2.442-16.149 6.786s-6.69 10.238-6.69 16.382c0 6.144 2.407 12.038 6.69 16.382 4.283 4.346 10.092 6.786 16.149 6.786h458.612c6.058 0 11.867-2.439 16.152-6.786 4.283-4.344 6.688-10.238 6.688-16.382s-2.405-12.038-6.688-16.382c-4.285-4.344-10.094-6.786-16.152-6.786z" />
<glyph unicode="&#xe910;" glyph-name="tome" horiz-adv-x="1063" d="M531.877-64c-105.177-0.035-207.998 29.968-295.463 86.213s-155.642 136.208-195.907 229.77c-40.265 93.566-50.809 196.525-30.299 295.861 20.51 99.334 71.152 190.579 145.522 262.194s169.124 120.382 272.279 140.132c103.156 19.75 210.078 9.596 307.239-29.178s180.2-104.426 238.608-188.65c58.411-84.225 89.565-183.238 89.529-284.519-0.193-135.688-56.253-265.763-155.888-361.708s-234.717-149.929-375.619-150.114zM531.877 889.422c-90.711 0.035-179.389-25.835-254.827-74.337s-134.243-117.458-168.98-198.147c-34.737-80.689-43.845-169.485-26.171-255.159s61.335-164.372 125.461-226.15c64.127-61.775 145.84-103.853 234.803-120.907 88.958-17.050 181.173-8.318 264.98 25.104 83.807 33.418 155.435 90.017 205.832 162.643 50.4 72.621 77.3 158.007 77.3 245.354-0.098 117.063-48.416 229.302-134.357 312.093s-202.48 129.366-324.041 129.506zM709.53 269.347c-7.763 0.024-15.317 2.43-21.567 6.865l-160.658 114.227c-9.901 7.038-17.952 16.215-23.509 26.789-5.553 10.575-8.46 22.256-8.48 34.107v277.386c0 9.336 3.852 18.289 10.709 24.891 6.853 6.602 16.152 10.31 25.848 10.31 9.693 0 18.991-3.708 25.848-10.31 6.853-6.601 10.705-15.555 10.705-24.891v-277.386c0-0.843 0.197-1.678 0.575-2.438 0.382-0.764 0.933-1.434 1.619-1.961l159.929-114.050c6.203-4.403 10.799-10.579 13.143-17.644 2.339-7.070 2.3-14.667-0.114-21.713-2.41-7.046-7.073-13.178-13.32-17.522-6.246-4.34-13.753-6.672-21.457-6.66h0.729z" />
<glyph unicode="&#xe911;" glyph-name="update" d="M902.053 777.481c-88.678 103.884-215.518 168.821-352.684 180.558s-273.451-30.684-378.94-117.953c-15.683-13.223-30.617-27.286-44.735-42.125l-64.992 52.948c-4.55 3.781-10.085 6.223-15.974 7.050s-11.896 0.004-17.334-2.374c-5.438-2.379-10.090-6.216-13.423-11.076s-5.215-10.547-5.43-16.411l-8.609-214.124c-0.209-4.83 0.719-9.643 2.712-14.061s4.995-8.319 8.772-11.399c3.778-3.081 8.228-5.258 13.001-6.358s9.74-1.095 14.511 0.015l212.193 48.12c5.769 1.336 11.046 4.231 15.241 8.36s7.142 9.329 8.509 15.016c1.367 5.688 1.1 11.638-0.769 17.185s-5.266 10.47-9.813 14.219l-59.759 48.786c10.128 10.156 20.426 20.147 31.736 29.471 68.601 56.752 153.871 90.266 243.243 95.602s178.116-17.787 253.158-65.961c75.042-48.175 132.409-118.852 163.641-201.616 31.238-82.764 34.691-173.236 9.859-258.086-24.838-84.844-76.658-159.579-147.809-213.18-71.157-53.606-157.889-83.246-247.413-84.554-89.526-1.308-177.11 25.788-249.843 77.289s-126.77 124.689-154.144 208.771c-4.451 12.169-13.512 22.158-25.28 27.864-11.768 5.712-25.323 6.696-37.811 2.748s-22.94-12.521-29.15-23.91c-6.21-11.395-7.697-24.718-4.148-37.171 23.392-72.090 62.689-138.172 115.063-193.49 52.375-55.324 116.526-98.514 187.843-126.464s148.024-39.964 224.61-35.18c76.584 4.779 151.149 26.237 218.323 62.834 67.174 36.591 125.292 87.415 170.177 148.81 44.885 61.389 75.418 131.834 89.412 206.256 13.989 74.421 11.088 150.976-8.494 224.161-19.587 73.185-55.37 141.181-104.778 199.097l-0.671 0.333z" />
<glyph unicode="&#xe912;" glyph-name="web" d="M980.419 653.95c-0.387 1.073-0.853 2.118-1.388 3.127-40.372 90.219-105.976 166.824-188.894 220.574-82.914 53.75-179.602 82.35-278.399 82.35s-195.483-28.6-278.398-82.35c-82.916-53.75-148.519-130.355-188.894-220.574l-1.215-2.78c-34.231-77.971-48.495-163.251-41.499-248.125s35.030-166.665 81.566-237.974c46.536-71.308 110.106-129.881 184.958-170.424s158.626-61.774 243.743-61.774c85.117 0 168.892 21.231 243.742 61.774 74.854 40.543 138.422 99.116 184.961 170.424 46.535 71.308 74.57 153.099 81.563 237.974 6.997 84.874-7.267 170.155-41.499 248.125l-0.349-0.347zM511.651 4.79c-52.084 0-107.641 94.671-136.115 239.548h272.929c-29.169-144.877-85.075-239.548-136.64-239.548h-0.174zM364.599 313.822c-5.264 44.449-7.875 89.171-7.814 133.932-0.145 53.244 3.628 106.428 11.286 159.12h287.165c7.574-52.7 11.344-105.876 11.287-159.12 0.004-44.764-2.662-89.486-7.991-133.932h-293.932zM69.448 447.753c-0.011 54.42 10.054 108.37 29.688 159.12h199.487c-13.149-97.176-14.256-195.605-3.298-293.052h-205.218c-13.87 43.41-20.956 88.705-21.007 134.281l0.347-0.349zM512.174 890.545c48.439 0 100.872-83.729 130.56-214.186h-261.643c29.688 130.458 82.121 214.186 130.734 214.186h0.349zM725.724 606.874h199.312c36.212-93.82 39.394-197.179 9.026-293.052h-205.213c11.143 97.435 10.092 195.88-3.125 293.052zM891.009 676.358h-177.266c-12.462 68.52-36.599 134.389-71.358 194.731 104.073-32.21 192.717-101.496 249.143-194.731h-0.52zM381.785 871.089c-34.756-60.342-58.893-126.21-71.355-194.731h-177.611c56.347 93.091 144.773 162.351 248.621 194.731h0.345zM119.103 244.338h186.465c11.718-77.361 37.553-151.909 76.217-219.917-56.2 17.427-108.388 45.841-153.538 83.589-45.15 37.751-82.366 84.086-109.493 136.329h0.348zM642.386 24.421c38.665 68.009 64.504 142.556 76.22 219.917h186.467c-27.128-52.243-64.341-98.577-109.492-136.329-45.151-37.748-97.337-66.162-153.539-83.589h0.345z" />
<glyph unicode="&#xe913;" glyph-name="zoom_in" d="M958.357 513.642h-380.714v380.717c0 17.409-6.917 34.106-19.228 46.416s-29.007 19.225-46.415 19.225c-17.408 0-34.104-6.915-46.415-19.225s-19.226-29.006-19.226-46.416v-380.717h-380.718c-17.409 0-34.104-6.915-46.414-19.227s-19.227-29.007-19.227-46.415c0-17.408 6.917-34.104 19.227-46.415s29.005-19.223 46.414-19.223h380.718v-380.719c0-17.413 6.916-34.109 19.226-46.42 12.311-12.307 29.007-19.223 46.415-19.223s34.104 6.917 46.415 19.223c12.311 12.311 19.228 29.007 19.228 46.42v380.719h380.714c17.413 0 34.109 6.912 46.42 19.223 12.307 12.311 19.223 29.007 19.223 46.415s-6.917 34.104-19.223 46.415c-12.311 12.311-29.007 19.227-46.42 19.227z" />
<glyph unicode="&#xe914;" glyph-name="zoomout" d="M958.355 354.909h-892.714c-17.41 0-34.1 9.805-46.412 27.266-12.309 17.461-19.229 41.139-19.229 65.825s6.918 48.367 19.229 65.825c12.309 17.461 29.004 27.266 46.412 27.266h892.714c17.414 0 34.11-9.806 46.422-27.266 12.306-17.46 19.223-41.138 19.223-65.825s-6.918-48.367-19.223-65.825c-12.311-17.46-29.005-27.266-46.422-27.266z" />
<glyph unicode="&#xe915;" glyph-name="marker_circle" horiz-adv-x="896" d="M889.262 522.148c0.010 83.51-24.241 165.281-69.883 235.665-45.645 70.384-110.781 126.447-187.725 161.573s-162.486 47.852-246.533 36.675c-84.047-11.177-163.096-45.79-227.82-99.756s-112.423-125.034-137.47-204.82c-25.047-79.785-26.397-164.959-3.891-245.476s67.929-153.014 130.911-208.945c62.982-55.928 140.894-92.954 224.548-106.708 9.203-1.49 17.567-6.154 23.598-13.158 6.029-7.007 9.334-15.895 9.324-25.078v-74.755c-0.156-10.527 3.825-20.705 11.11-28.411s17.316-12.339 27.991-12.936c5.394-0.159 10.767 0.75 15.798 2.673s9.618 4.823 13.491 8.525c3.873 3.702 6.95 8.131 9.052 13.025 2.099 4.895 3.182 10.156 3.18 15.47v76.408c-0.003 9.17 3.297 18.043 9.313 25.044s14.354 11.676 23.539 13.192c103.795 17.052 198.088 69.798 266.104 148.861 68.017 79.060 105.352 179.315 105.362 282.931z" />
<glyph unicode="&#xe916;" glyph-name="marker_bubble" horiz-adv-x="861" d="M849.273 524.982c0 245.288-190.701 435.609-425.479 435.020-227.376-0.589-416.459-183.924-423.352-421.301-5.446-188.637 121.346-337.378 257.073-438.977 35.4-26.515 72.674-49.999 94.287-89.479l24.592-44.949c4.552-8.846 11.487-16.272 20.040-21.462 8.553-5.187 18.39-7.931 28.423-7.931s19.87 2.744 28.423 7.931c8.553 5.19 15.488 12.616 20.040 21.462l23.059 42.086c22.381 40.911 61.696 64.479 97.606 93.1 147.726 117.676 255.288 242.425 255.288 424.499z" />
</font>
</defs>
</svg>
