<svg width="103" height="66" viewBox="0 0 103 66" fill="none" xmlns="http://www.w3.org/2000/svg">
<path d="M79.6764 65.9992C75.9187 65.9985 72.2178 65.0918 68.8934 63.3574C65.5691 61.6231 62.7215 59.1132 60.5966 56.0449C59.1805 54.1304 57.6623 52.2919 56.0485 50.5373C55.5632 49.993 54.9695 49.5541 54.3045 49.248C53.6396 48.9419 52.9178 48.7754 52.1848 48.7589C51.4517 48.7424 50.7231 48.8763 50.0448 49.1521C49.3665 49.428 48.7532 49.8398 48.2434 50.3617L40.1546 58.5527C39.4389 59.3317 38.6683 60.0595 37.8486 60.7305C34.6316 63.3642 30.7544 65.0863 26.6285 65.7141C22.5026 66.3418 18.2819 65.8518 14.4146 64.296C10.5474 62.7402 7.17777 60.1767 4.66353 56.8775C2.14929 53.5784 0.584232 49.6669 0.13454 45.5581C-0.315153 41.4493 0.367285 37.2966 2.1094 33.5409C3.85151 29.7852 6.5883 26.5666 10.0292 24.2267C13.4701 21.8869 17.4867 20.5131 21.6527 20.2514C25.8187 19.9896 29.9785 20.8495 33.6906 22.7398C34.7534 23.2723 35.9594 23.4572 37.135 23.2678C38.3106 23.0785 39.3952 22.5247 40.2327 21.6861L55.3034 6.76521C57.4687 4.60898 60.0453 2.90051 62.8835 1.73913C65.7217 0.577754 68.7648 -0.0133487 71.8359 0.000228696H78.4346C79.1833 -0.00797086 79.9076 0.263846 80.4627 0.761331C81.0178 1.25882 81.3629 1.94534 81.429 2.68374C81.4542 3.07429 81.3982 3.46579 81.2644 3.83404C81.1307 4.20229 80.9219 4.53942 80.6512 4.82457C80.3805 5.10972 80.0535 5.33685 79.6906 5.49182C79.3276 5.64679 78.9364 5.72634 78.5411 5.72554H71.8359C69.5267 5.72205 67.2398 6.17299 65.1081 7.05214C62.9765 7.93129 61.0426 9.22112 59.4188 10.8467L39.6154 30.4531C39.5283 30.5758 39.431 30.6909 39.3244 30.7974C39.2018 30.9254 39.0663 31.0408 38.92 31.1416L31.186 38.7987C31.0651 38.9172 30.9824 39.0686 30.9485 39.2336C30.9147 39.3987 30.9311 39.57 30.9957 39.7258C31.0603 39.8816 31.1702 40.0148 31.3115 40.1087C31.4527 40.2025 31.6189 40.2527 31.7891 40.2529H44.497C46.2962 40.252 48.0772 39.8955 49.7355 39.2043C51.3937 38.5131 52.8959 37.5011 54.154 36.2276L62.6118 27.6502C64.826 25.2587 67.5271 23.3592 70.537 22.0768C73.547 20.7945 76.7973 20.1585 80.0737 20.2109C86.2066 20.263 92.0674 22.7251 96.3667 27.0555C100.666 31.3858 103.052 37.2298 102.999 43.3017C102.946 49.3736 100.46 55.1761 96.0858 59.4327C91.7119 63.6893 85.8092 66.0513 79.6764 65.9992ZM23.1255 25.9572C20.3419 25.9599 17.6 26.6257 15.131 27.8984C12.6621 29.171 10.5387 31.0132 8.94017 33.2693C7.34164 35.5254 6.31489 38.1292 5.94664 40.8608C5.57839 43.5924 5.87946 46.3717 6.82439 48.9639C7.76932 51.5561 9.33038 53.8851 11.3758 55.7543C13.4212 57.6235 15.8908 58.9779 18.5762 59.7033C21.2615 60.4287 24.0838 60.5037 26.8046 59.922C29.5254 59.3402 32.0649 58.1188 34.2086 56.361C34.8326 55.8461 35.4205 55.2899 35.9683 54.6961L36.0392 54.6188L39.814 50.7973C40.2232 50.4042 40.5034 49.8983 40.618 49.3454C40.7326 48.7925 40.6763 48.2182 40.4566 47.6973C40.2368 47.1765 39.8637 46.7333 39.3859 46.4254C38.9081 46.1175 38.3476 45.9592 37.7776 45.9712H30.4906C29.4089 45.9877 28.3416 45.7242 27.3945 45.2067C26.4474 44.6892 25.6533 43.9356 25.0909 43.0207C24.4165 41.8803 24.1434 40.5505 24.3141 39.2399C24.4849 37.9292 25.09 36.7117 26.0346 35.778L30.2139 31.6404C30.5553 31.3123 30.808 30.9044 30.9486 30.4544C31.0893 30.0043 31.1133 29.5265 31.0187 29.0648C30.924 28.6032 30.7136 28.1725 30.4068 27.8123C30.1 27.4522 29.7067 27.1742 29.2631 27.0039C27.2997 26.281 25.2202 25.9168 23.1255 25.9291V25.9572Z" fill="url(#paint0_linear_18_867)"/>
<defs>
<linearGradient id="paint0_linear_18_867" x1="-0.00574241" y1="33.0032" x2="102.8" y2="33.0032" gradientUnits="userSpaceOnUse">
<stop stop-color="#F07E3F"/>
<stop offset="1" stop-color="#FFCE65"/>
</linearGradient>
</defs>
</svg>
